<svg xmlns="http://www.w3.org/2000/svg" xmlns:xlink="http://www.w3.org/1999/xlink" width="536" zoomAndPan="magnify" viewBox="0 0 402 113.249998" height="151" preserveAspectRatio="xMidYMid meet" version="1.0"><defs><g/></defs><g fill="#000000" fill-opacity="1"><g transform="translate(20.458971, 77.210649)"><g><path d="M 24.03125 -12.328125 C 24.03125 -9.53125 21.671875 -7.25 18.890625 -7.25 L 13 -7.25 L 13 -17.40625 L 18.890625 -17.40625 C 21.671875 -17.40625 24.03125 -15.046875 24.03125 -12.328125 Z M 21.109375 -29.90625 C 21.109375 -27.25 18.890625 -25.015625 16.21875 -25.015625 L 13 -25.015625 L 13 -34.796875 L 16.21875 -34.796875 C 18.890625 -34.796875 21.109375 -32.625 21.109375 -29.90625 Z M 33.5 -12.078125 C 33.5 -17.765625 29.65625 -21.546875 24.953125 -22.65625 C 28.109375 -24.09375 29.96875 -27.3125 29.96875 -31.578125 C 29.96875 -37.34375 25.390625 -42.109375 18.203125 -42.109375 L 3.71875 -42.109375 L 3.71875 0 L 20.75 0 C 28.796875 0 33.5 -4.828125 33.5 -12.078125 Z M 33.5 -12.078125 "/></g></g></g><g fill="#000000" fill-opacity="1"><g transform="translate(66.958132, 77.210649)"><g><path d="M 20.0625 -6.5625 C 15.484375 -6.5625 11.515625 -8.859375 11.265625 -13.875 L 1.859375 -13.875 C 1.921875 -3.59375 10.40625 0.984375 19.6875 0.984375 C 28.296875 0.984375 37.15625 -2.65625 37.15625 -12.5625 C 37.15625 -28.609375 12.8125 -23.21875 12.8125 -30.71875 C 12.8125 -33.875 16.46875 -35.109375 19.078125 -35.109375 C 23.71875 -35.109375 26.25 -33.6875 26.75 -29.28125 L 35.734375 -29.28125 C 35.421875 -38.890625 27.609375 -42.71875 18.953125 -42.71875 C 11.265625 -42.71875 3.21875 -38.640625 3.21875 -29.96875 C 3.21875 -14.421875 27.5625 -19.6875 27.5625 -11.515625 C 27.5625 -7.734375 22.96875 -6.5625 20.0625 -6.5625 Z M 20.0625 -6.5625 "/></g></g></g><g fill="#000000" fill-opacity="1"><g transform="translate(118.348276, 77.210649)"><g><path d="M 34.125 -14.296875 C 32.390625 -10.59375 28.171875 -8.046875 23.84375 -8.046875 C 17.03125 -8.046875 11.578125 -13.875 11.578125 -21.046875 C 11.578125 -28.171875 17.03125 -34.0625 23.84375 -34.0625 C 28.109375 -34.0625 32.328125 -31.703125 34.0625 -27.921875 L 44.390625 -27.921875 C 41.546875 -36.53125 33.4375 -42.71875 23.84375 -42.71875 C 11.890625 -42.71875 2.171875 -33 2.171875 -21.046875 C 2.171875 -9.109375 11.890625 0.625 23.84375 0.625 C 33.4375 0.625 41.609375 -5.640625 44.453125 -14.296875 Z M 34.125 -14.296875 "/></g></g></g><g fill="#000000" fill-opacity="1"><g transform="translate(168.70209, 48.548437)"><g><path d="M 10.90625 -3.96875 C 10.90625 -4.984375 10.640625 -5.84375 10.15625 -6.515625 C 9.65625 -7.1875 8.984375 -7.640625 8.171875 -7.875 C 8.65625 -8.078125 9.078125 -8.46875 9.390625 -9.03125 C 9.53125 -9.28125 9.640625 -9.53125 9.71875 -9.8125 C 9.8125 -10.078125 9.84375 -10.453125 9.84375 -10.9375 C 9.84375 -11.40625 9.71875 -11.890625 9.515625 -12.34375 C 8.890625 -13.625 7.515625 -14.28125 5.4375 -14.28125 L 1.578125 -14.28125 L 1.578125 0 L 5.9375 0 C 7.390625 0 8.546875 -0.3125 9.421875 -0.984375 C 9.875 -1.328125 10.234375 -1.765625 10.5 -2.3125 C 10.75 -2.828125 10.90625 -3.375 10.90625 -3.96875 Z M 8.375 -10.703125 C 8.375 -9.9375 8.140625 -9.359375 7.6875 -8.984375 C 7.21875 -8.609375 6.609375 -8.421875 5.859375 -8.421875 L 3.046875 -8.421875 L 3.046875 -12.875 L 5.4375 -12.875 C 7.390625 -12.875 8.375 -12.140625 8.375 -10.703125 Z M 9.421875 -4.265625 C 9.421875 -3.40625 9.140625 -2.703125 8.546875 -2.1875 C 7.984375 -1.65625 7.25 -1.40625 6.359375 -1.40625 L 3.046875 -1.40625 L 3.046875 -6.953125 L 6.59375 -6.953125 C 7.328125 -6.953125 7.984375 -6.703125 8.546875 -6.1875 C 8.796875 -5.96875 9.015625 -5.6875 9.171875 -5.375 C 9.34375 -5.046875 9.421875 -4.6875 9.421875 -4.265625 Z M 9.421875 -4.265625 "/></g></g></g><g fill="#000000" fill-opacity="1"><g transform="translate(184.214677, 48.548437)"><g><path d="M 8.921875 -4.625 C 8.921875 -3.71875 8.609375 -2.921875 7.984375 -2.265625 C 7.34375 -1.59375 6.578125 -1.265625 5.671875 -1.265625 C 4.75 -1.265625 3.96875 -1.59375 3.34375 -2.265625 C 2.703125 -2.921875 2.421875 -3.71875 2.421875 -4.625 C 2.421875 -5.5 2.703125 -6.296875 3.34375 -6.96875 C 3.96875 -7.640625 4.75 -7.984375 5.671875 -7.984375 C 6.578125 -7.984375 7.34375 -7.640625 7.984375 -6.96875 C 8.609375 -6.296875 8.921875 -5.5 8.921875 -4.625 Z M 10.390625 0 L 10.390625 -9.234375 L 8.921875 -9.234375 L 8.921875 -7.640625 C 8.84375 -7.765625 8.734375 -7.875 8.65625 -7.984375 C 7.765625 -8.953125 6.703125 -9.453125 5.4375 -9.453125 C 4.15625 -9.453125 3.09375 -8.953125 2.203125 -7.984375 C 1.359375 -7.015625 0.9375 -5.90625 0.9375 -4.625 C 0.9375 -3.3125 1.359375 -2.203125 2.203125 -1.265625 C 3.09375 -0.265625 4.15625 0.203125 5.4375 0.203125 C 6.703125 0.203125 7.765625 -0.265625 8.65625 -1.265625 C 8.734375 -1.34375 8.84375 -1.453125 8.921875 -1.578125 L 8.921875 0 Z M 10.390625 0 "/></g></g></g><g fill="#000000" fill-opacity="1"><g transform="translate(200.377931, 48.548437)"><g><path d="M 7.953125 0 L 9.421875 0 L 9.421875 -5.78125 C 9.421875 -6.84375 9.140625 -7.703125 8.59375 -8.359375 C 8.296875 -8.6875 7.953125 -8.953125 7.5625 -9.140625 C 7.140625 -9.328125 6.609375 -9.421875 5.96875 -9.421875 C 5.296875 -9.421875 4.71875 -9.234375 4.21875 -8.90625 C 3.734375 -8.59375 3.34375 -8.171875 3.046875 -7.640625 L 3.046875 -9.234375 L 1.578125 -9.234375 L 1.578125 0 L 3.046875 0 L 3.046875 -3.859375 C 3.046875 -5.046875 3.25 -5.96875 3.703125 -6.65625 C 3.953125 -7.03125 4.265625 -7.34375 4.65625 -7.609375 C 5.046875 -7.828125 5.5625 -7.953125 6.1875 -7.953125 C 6.828125 -7.953125 7.265625 -7.734375 7.53125 -7.3125 C 7.8125 -6.890625 7.953125 -6.359375 7.953125 -5.78125 Z M 7.953125 0 "/></g></g></g><g fill="#000000" fill-opacity="1"><g transform="translate(215.260832, 48.548437)"><g><path d="M 9.046875 -4.625 C 9.046875 -3.71875 8.734375 -2.921875 8.109375 -2.265625 C 7.46875 -1.59375 6.703125 -1.265625 5.796875 -1.265625 C 4.890625 -1.265625 4.109375 -1.59375 3.484375 -2.265625 C 2.859375 -2.921875 2.546875 -3.703125 2.546875 -4.625 C 2.546875 -5.515625 2.859375 -6.296875 3.484375 -6.96875 C 4.109375 -7.640625 4.890625 -7.984375 5.796875 -7.984375 C 6.703125 -7.984375 7.46875 -7.640625 8.109375 -6.96875 C 8.734375 -6.296875 9.046875 -5.5 9.046875 -4.625 Z M 2.5 1.265625 L 0.984375 1.265625 C 1.15625 2.25 1.59375 3.109375 2.359375 3.84375 C 3.28125 4.78125 4.40625 5.25 5.734375 5.25 C 7.03125 5.25 8.171875 4.78125 9.109375 3.84375 C 10.03125 2.921875 10.515625 1.78125 10.515625 0.46875 L 10.515625 -9.234375 L 9.046875 -9.234375 L 9.046875 -7.6875 C 8.96875 -7.765625 8.890625 -7.875 8.796875 -7.984375 C 7.875 -8.953125 6.796875 -9.453125 5.59375 -9.453125 C 4.28125 -9.453125 3.21875 -8.953125 2.328125 -7.984375 C 1.484375 -7.015625 1.078125 -5.90625 1.078125 -4.625 C 1.078125 -3.3125 1.484375 -2.203125 2.328125 -1.265625 C 3.21875 -0.265625 4.28125 0.203125 5.59375 0.203125 C 6.84375 0.203125 7.921875 -0.265625 8.796875 -1.265625 C 8.890625 -1.34375 8.96875 -1.453125 9.046875 -1.53125 L 9.046875 0.46875 C 9.046875 1.390625 8.71875 2.15625 8.0625 2.8125 C 7.40625 3.46875 6.640625 3.78125 5.734375 3.78125 C 4.8125 3.78125 4.03125 3.46875 3.375 2.8125 C 2.921875 2.359375 2.625 1.84375 2.5 1.265625 Z M 2.5 1.265625 "/></g></g></g><g fill="#000000" fill-opacity="1"><g transform="translate(231.550028, 48.548437)"><g><path d="M 8.921875 -4.625 C 8.921875 -3.71875 8.609375 -2.921875 7.984375 -2.265625 C 7.34375 -1.59375 6.578125 -1.265625 5.671875 -1.265625 C 4.75 -1.265625 3.96875 -1.59375 3.34375 -2.265625 C 2.703125 -2.921875 2.421875 -3.71875 2.421875 -4.625 C 2.421875 -5.5 2.703125 -6.296875 3.34375 -6.96875 C 3.96875 -7.640625 4.75 -7.984375 5.671875 -7.984375 C 6.578125 -7.984375 7.34375 -7.640625 7.984375 -6.96875 C 8.609375 -6.296875 8.921875 -5.5 8.921875 -4.625 Z M 10.390625 0 L 10.390625 -9.234375 L 8.921875 -9.234375 L 8.921875 -7.640625 C 8.84375 -7.765625 8.734375 -7.875 8.65625 -7.984375 C 7.765625 -8.953125 6.703125 -9.453125 5.4375 -9.453125 C 4.15625 -9.453125 3.09375 -8.953125 2.203125 -7.984375 C 1.359375 -7.015625 0.9375 -5.90625 0.9375 -4.625 C 0.9375 -3.3125 1.359375 -2.203125 2.203125 -1.265625 C 3.09375 -0.265625 4.15625 0.203125 5.4375 0.203125 C 6.703125 0.203125 7.765625 -0.265625 8.65625 -1.265625 C 8.734375 -1.34375 8.84375 -1.453125 8.921875 -1.578125 L 8.921875 0 Z M 10.390625 0 "/></g></g></g><g fill="#000000" fill-opacity="1"><g transform="translate(247.713282, 48.548437)"><g><path d="M 3.046875 0 L 3.046875 -15.75 L 1.578125 -15.75 L 1.578125 0 Z M 3.046875 0 "/></g></g></g><g fill="#000000" fill-opacity="1"><g transform="translate(256.530206, 48.548437)"><g><path d="M 9.140625 -4.65625 C 9.140625 -3.734375 8.796875 -2.96875 8.140625 -2.3125 C 7.46875 -1.640625 6.703125 -1.328125 5.78125 -1.328125 C 4.84375 -1.328125 4.046875 -1.640625 3.40625 -2.3125 C 2.734375 -2.96875 2.421875 -3.734375 2.421875 -4.65625 C 2.421875 -5.59375 2.734375 -6.359375 3.40625 -7.03125 C 4.046875 -7.6875 4.84375 -8.015625 5.78125 -8.015625 C 6.703125 -8.015625 7.46875 -7.6875 8.140625 -7.03125 C 8.796875 -6.359375 9.140625 -5.59375 9.140625 -4.65625 Z M 10.609375 -4.65625 C 10.609375 -5.984375 10.125 -7.125 9.171875 -8.0625 C 8.234375 -9.015625 7.09375 -9.484375 5.78125 -9.484375 C 4.4375 -9.484375 3.296875 -9.015625 2.359375 -8.0625 C 1.40625 -7.125 0.9375 -5.984375 0.9375 -4.65625 C 0.9375 -3.3125 1.40625 -2.1875 2.359375 -1.265625 C 3.296875 -0.3125 4.453125 0.140625 5.78125 0.140625 C 7.078125 0.140625 8.234375 -0.3125 9.171875 -1.265625 C 10.125 -2.1875 10.609375 -3.3125 10.609375 -4.65625 Z M 10.609375 -4.65625 "/></g></g></g><g fill="#000000" fill-opacity="1"><g transform="translate(272.273668, 48.548437)"><g><path d="M 6.328125 -7.328125 L 6.328125 -9.234375 C 6.03125 -9.359375 5.71875 -9.421875 5.390625 -9.421875 C 4.34375 -9.421875 3.59375 -8.84375 3.109375 -7.703125 L 3.046875 -7.328125 L 3.046875 -9.234375 L 1.578125 -9.234375 L 1.578125 0 L 3.046875 0 L 3.046875 -4.625 C 3.046875 -5.375 3.21875 -6.046875 3.5625 -6.65625 C 3.734375 -6.96875 3.96875 -7.25 4.234375 -7.453125 C 4.515625 -7.671875 4.84375 -7.796875 5.234375 -7.796875 C 5.609375 -7.796875 5.96875 -7.625 6.328125 -7.328125 Z M 6.328125 -7.328125 "/></g></g></g><g fill="#000000" fill-opacity="1"><g transform="translate(283.000636, 48.548437)"><g><path d="M 10.609375 -4.828125 C 10.609375 -6.09375 10.09375 -7.1875 9.140625 -8.125 C 8.1875 -9.03125 7.0625 -9.484375 5.78125 -9.484375 C 4.4375 -9.484375 3.296875 -9.015625 2.359375 -8.0625 C 1.40625 -7.125 0.9375 -5.984375 0.9375 -4.65625 C 0.9375 -3.3125 1.40625 -2.1875 2.359375 -1.265625 C 2.796875 -0.8125 3.296875 -0.484375 3.890625 -0.234375 C 4.46875 0.015625 5.171875 0.140625 5.984375 0.140625 C 6.796875 0.140625 7.609375 -0.109375 8.40625 -0.609375 C 9.203125 -1.109375 9.78125 -1.828125 10.1875 -2.703125 L 8.5 -2.703125 C 8.171875 -2.265625 7.765625 -1.9375 7.28125 -1.6875 C 6.796875 -1.421875 6.296875 -1.328125 5.78125 -1.328125 C 4.984375 -1.328125 4.265625 -1.578125 3.640625 -2.09375 C 3 -2.609375 2.609375 -3.25 2.484375 -4.046875 L 10.609375 -4.046875 Z M 9.046875 -5.3125 L 2.5 -5.3125 C 2.578125 -5.6875 2.734375 -6.046875 2.9375 -6.390625 C 3.609375 -7.46875 4.5625 -8.015625 5.78125 -8.015625 C 6.546875 -8.015625 7.25 -7.765625 7.859375 -7.265625 C 8.484375 -6.734375 8.859375 -6.09375 9.046875 -5.3125 Z M 9.046875 -5.3125 "/></g></g></g><g fill="#000000" fill-opacity="1"><g transform="translate(168.70209, 76.635304)"><g><path d="M 6.390625 -7.78125 C 8.546875 -7.28125 10 -6.71875 10.78125 -6.078125 C 11.3125 -5.640625 11.578125 -5.078125 11.578125 -4.40625 C 11.578125 -3.71875 11.4375 -3.15625 11.140625 -2.765625 C 10.40625 -1.75 9.09375 -1.234375 7.25 -1.234375 C 4.671875 -1.234375 3.21875 -2.109375 2.890625 -3.875 L 0.90625 -3.875 C 1.484375 -1.078125 3.59375 0.3125 7.25 0.3125 C 8.875 0.3125 10.234375 -0.03125 11.34375 -0.75 C 12.65625 -1.609375 13.328125 -2.875 13.328125 -4.53125 C 13.328125 -5.890625 12.796875 -6.9375 11.71875 -7.65625 C 10.96875 -8.203125 9.75 -8.6875 8.078125 -9.125 C 6.375 -9.5625 5.28125 -9.921875 4.765625 -10.1875 C 3.65625 -10.75 3.09375 -11.53125 3.109375 -12.546875 C 3.109375 -13.09375 3.21875 -13.546875 3.453125 -13.890625 C 4.09375 -14.84375 5.203125 -15.328125 6.8125 -15.328125 C 9.078125 -15.328125 10.359375 -14.59375 10.703125 -13.1875 L 12.546875 -13.1875 C 11.9375 -15.5625 10.015625 -16.78125 6.8125 -16.78125 C 5.359375 -16.78125 4.0625 -16.390625 3 -15.625 C 1.890625 -14.84375 1.34375 -13.703125 1.34375 -12.140625 C 1.34375 -10.015625 3.046875 -8.5625 6.390625 -7.78125 Z M 6.390625 -7.78125 "/></g></g></g><g fill="#000000" fill-opacity="1"><g transform="translate(187.530838, 76.635304)"><g><path d="M 12.28125 -5.59375 C 12.28125 -7.0625 11.703125 -8.3125 10.578125 -9.421875 C 9.484375 -10.46875 8.171875 -11 6.6875 -11 C 5.140625 -11 3.8125 -10.4375 2.71875 -9.34375 C 1.625 -8.25 1.09375 -6.9375 1.09375 -5.40625 C 1.09375 -3.84375 1.625 -2.53125 2.71875 -1.453125 C 3.234375 -0.953125 3.8125 -0.5625 4.5 -0.265625 C 5.1875 0.03125 5.984375 0.171875 6.9375 0.171875 C 7.875 0.171875 8.8125 -0.125 9.734375 -0.703125 C 10.65625 -1.296875 11.34375 -2.109375 11.796875 -3.140625 L 9.859375 -3.140625 C 9.46875 -2.625 9 -2.234375 8.4375 -1.953125 C 7.875 -1.65625 7.296875 -1.53125 6.6875 -1.53125 C 5.765625 -1.53125 4.9375 -1.828125 4.203125 -2.4375 C 3.484375 -3.015625 3.015625 -3.765625 2.875 -4.703125 L 12.28125 -4.703125 Z M 10.484375 -6.15625 L 2.890625 -6.15625 C 3 -6.59375 3.15625 -7 3.40625 -7.390625 C 4.1875 -8.65625 5.28125 -9.296875 6.6875 -9.296875 C 7.59375 -9.296875 8.390625 -9 9.09375 -8.421875 C 9.828125 -7.8125 10.265625 -7.0625 10.484375 -6.15625 Z M 10.484375 -6.15625 "/></g></g></g><g fill="#000000" fill-opacity="1"><g transform="translate(205.654175, 76.635304)"><g><path d="M 7.328125 -8.484375 L 7.328125 -10.703125 C 6.984375 -10.84375 6.625 -10.921875 6.25 -10.921875 C 5.03125 -10.921875 4.15625 -10.234375 3.59375 -8.921875 L 3.53125 -8.484375 L 3.53125 -10.703125 L 1.828125 -10.703125 L 1.828125 0 L 3.53125 0 L 3.53125 -5.359375 C 3.53125 -6.234375 3.71875 -7 4.140625 -7.71875 C 4.328125 -8.078125 4.59375 -8.390625 4.921875 -8.640625 C 5.234375 -8.875 5.625 -9.03125 6.0625 -9.03125 C 6.5 -9.03125 6.90625 -8.828125 7.328125 -8.484375 Z M 7.328125 -8.484375 "/></g></g></g><g fill="#000000" fill-opacity="1"><g transform="translate(218.085568, 76.635304)"><g><path d="M 5.1875 1.015625 L 10.09375 -10.703125 L 8.25 -10.703125 L 5.1875 -2.75 L 2.09375 -10.703125 L 0.25 -10.703125 Z M 5.1875 1.015625 "/></g></g></g><g fill="#000000" fill-opacity="1"><g transform="translate(233.289957, 76.635304)"><g><path d="M 3.546875 -14.40625 C 3.328125 -14.59375 3.0625 -14.71875 2.765625 -14.71875 C 2.484375 -14.71875 2.21875 -14.59375 2.015625 -14.40625 C 1.796875 -14.1875 1.703125 -13.921875 1.703125 -13.625 C 1.703125 -13.328125 1.796875 -13.0625 2.015625 -12.875 C 2.21875 -12.65625 2.484375 -12.546875 2.765625 -12.546875 C 3.0625 -12.546875 3.328125 -12.65625 3.546875 -12.875 C 3.75 -13.0625 3.875 -13.328125 3.875 -13.625 C 3.875 -13.921875 3.75 -14.1875 3.546875 -14.40625 Z M 3.65625 0 L 3.65625 -10.703125 L 1.953125 -10.703125 L 1.953125 0 Z M 3.65625 0 "/></g></g></g><g fill="#000000" fill-opacity="1"><g transform="translate(243.726734, 76.635304)"><g><path d="M 11.828125 -6.859375 C 11.484375 -8.046875 10.828125 -9.03125 9.875 -9.78125 C 8.875 -10.53125 7.78125 -10.921875 6.5625 -10.921875 C 5.03125 -10.921875 3.71875 -10.359375 2.671875 -9.265625 C 1.609375 -8.171875 1.09375 -6.859375 1.09375 -5.359375 C 1.09375 -3.8125 1.609375 -2.53125 2.671875 -1.40625 C 3.15625 -0.90625 3.71875 -0.484375 4.40625 -0.1875 C 5.0625 0.09375 5.734375 0.25 6.421875 0.25 C 7.109375 0.25 7.71875 0.171875 8.25 -0.03125 C 9.953125 -0.625 11.125 -1.78125 11.71875 -3.5 L 9.796875 -3.5 C 9.46875 -2.890625 9.03125 -2.40625 8.4375 -2.0625 C 7.859375 -1.703125 7.25 -1.53125 6.5625 -1.53125 C 5.515625 -1.53125 4.640625 -1.890625 3.921875 -2.65625 C 3.1875 -3.40625 2.84375 -4.3125 2.84375 -5.359375 C 2.84375 -6.34375 3.1875 -7.25 3.921875 -8 C 4.25 -8.34375 4.640625 -8.640625 5.109375 -8.828125 C 5.546875 -9.03125 6.109375 -9.140625 6.734375 -9.140625 C 7.375 -9.140625 7.984375 -8.921875 8.609375 -8.515625 C 9.21875 -8.078125 9.6875 -7.546875 9.96875 -6.859375 Z M 11.828125 -6.859375 "/></g></g></g><g fill="#000000" fill-opacity="1"><g transform="translate(261.266286, 76.635304)"><g><path d="M 12.28125 -5.59375 C 12.28125 -7.0625 11.703125 -8.3125 10.578125 -9.421875 C 9.484375 -10.46875 8.171875 -11 6.6875 -11 C 5.140625 -11 3.8125 -10.4375 2.71875 -9.34375 C 1.625 -8.25 1.09375 -6.9375 1.09375 -5.40625 C 1.09375 -3.84375 1.625 -2.53125 2.71875 -1.453125 C 3.234375 -0.953125 3.8125 -0.5625 4.5 -0.265625 C 5.1875 0.03125 5.984375 0.171875 6.9375 0.171875 C 7.875 0.171875 8.8125 -0.125 9.734375 -0.703125 C 10.65625 -1.296875 11.34375 -2.109375 11.796875 -3.140625 L 9.859375 -3.140625 C 9.46875 -2.625 9 -2.234375 8.4375 -1.953125 C 7.875 -1.65625 7.296875 -1.53125 6.6875 -1.53125 C 5.765625 -1.53125 4.9375 -1.828125 4.203125 -2.4375 C 3.484375 -3.015625 3.015625 -3.765625 2.875 -4.703125 L 12.28125 -4.703125 Z M 10.484375 -6.15625 L 2.890625 -6.15625 C 3 -6.59375 3.15625 -7 3.40625 -7.390625 C 4.1875 -8.65625 5.28125 -9.296875 6.6875 -9.296875 C 7.59375 -9.296875 8.390625 -9 9.09375 -8.421875 C 9.828125 -7.8125 10.265625 -7.0625 10.484375 -6.15625 Z M 10.484375 -6.15625 "/></g></g></g><g fill="#000000" fill-opacity="1"><g transform="translate(279.389629, 76.635304)"><g/></g></g><g fill="#000000" fill-opacity="1"><g transform="translate(290.823713, 76.635304)"><g><path d="M 17 -5.0625 L 15.125 -5.0625 C 14.546875 -3.984375 13.75 -3.109375 12.71875 -2.484375 C 11.703125 -1.828125 10.5625 -1.515625 9.34375 -1.515625 C 7.515625 -1.515625 5.953125 -2.171875 4.671875 -3.53125 C 3.40625 -4.8125 2.796875 -6.390625 2.796875 -8.25 C 2.796875 -10.09375 3.40625 -11.671875 4.671875 -12.984375 C 5.25 -13.59375 5.953125 -14.09375 6.765625 -14.453125 C 7.546875 -14.8125 8.3125 -15.015625 9.09375 -15.015625 C 9.859375 -15.015625 10.515625 -14.90625 11.09375 -14.75 C 12.875 -14.203125 14.203125 -13.140625 15.109375 -11.5 L 16.984375 -11.5 C 16.34375 -13.0625 15.34375 -14.328125 13.96875 -15.296875 C 12.546875 -16.28125 11.015625 -16.765625 9.34375 -16.765625 C 7.03125 -16.765625 5.078125 -15.90625 3.484375 -14.234375 C 2.71875 -13.453125 2.140625 -12.53125 1.734375 -11.5 C 1.296875 -10.484375 1.09375 -9.390625 1.09375 -8.25 C 1.09375 -5.90625 1.875 -3.9375 3.484375 -2.28125 C 5.078125 -0.578125 7.03125 0.25 9.34375 0.25 C 11.015625 0.25 12.546875 -0.25 13.984375 -1.21875 C 15.375 -2.1875 16.375 -3.453125 17 -5.0625 Z M 17 -5.0625 "/></g></g></g><g fill="#000000" fill-opacity="1"><g transform="translate(313.422765, 76.635304)"><g><path d="M 12.28125 -5.59375 C 12.28125 -7.0625 11.703125 -8.3125 10.578125 -9.421875 C 9.484375 -10.46875 8.171875 -11 6.6875 -11 C 5.140625 -11 3.8125 -10.4375 2.71875 -9.34375 C 1.625 -8.25 1.09375 -6.9375 1.09375 -5.40625 C 1.09375 -3.84375 1.625 -2.53125 2.71875 -1.453125 C 3.234375 -0.953125 3.8125 -0.5625 4.5 -0.265625 C 5.1875 0.03125 5.984375 0.171875 6.9375 0.171875 C 7.875 0.171875 8.8125 -0.125 9.734375 -0.703125 C 10.65625 -1.296875 11.34375 -2.109375 11.796875 -3.140625 L 9.859375 -3.140625 C 9.46875 -2.625 9 -2.234375 8.4375 -1.953125 C 7.875 -1.65625 7.296875 -1.53125 6.6875 -1.53125 C 5.765625 -1.53125 4.9375 -1.828125 4.203125 -2.4375 C 3.484375 -3.015625 3.015625 -3.765625 2.875 -4.703125 L 12.28125 -4.703125 Z M 10.484375 -6.15625 L 2.890625 -6.15625 C 3 -6.59375 3.15625 -7 3.40625 -7.390625 C 4.1875 -8.65625 5.28125 -9.296875 6.6875 -9.296875 C 7.59375 -9.296875 8.390625 -9 9.09375 -8.421875 C 9.828125 -7.8125 10.265625 -7.0625 10.484375 -6.15625 Z M 10.484375 -6.15625 "/></g></g></g><g fill="#000000" fill-opacity="1"><g transform="translate(331.546097, 76.635304)"><g><path d="M 9.21875 0 L 10.921875 0 L 10.921875 -6.6875 C 10.921875 -7.9375 10.578125 -8.921875 9.953125 -9.6875 C 9.609375 -10.078125 9.21875 -10.359375 8.765625 -10.578125 C 8.265625 -10.796875 7.65625 -10.921875 6.90625 -10.921875 C 6.125 -10.921875 5.46875 -10.703125 4.890625 -10.3125 C 4.328125 -9.953125 3.875 -9.46875 3.53125 -8.859375 L 3.53125 -10.703125 L 1.828125 -10.703125 L 1.828125 0 L 3.53125 0 L 3.53125 -4.46875 C 3.53125 -5.84375 3.765625 -6.90625 4.28125 -7.71875 C 4.578125 -8.15625 4.9375 -8.515625 5.40625 -8.8125 C 5.84375 -9.078125 6.453125 -9.21875 7.171875 -9.21875 C 7.90625 -9.21875 8.421875 -8.953125 8.734375 -8.46875 C 9.046875 -7.984375 9.21875 -7.375 9.21875 -6.6875 Z M 9.21875 0 "/></g></g></g><g fill="#000000" fill-opacity="1"><g transform="translate(348.793763, 76.635304)"><g><path d="M 0.484375 -9.125 L 3.15625 -9.125 L 3.15625 0 L 4.859375 0 L 4.859375 -9.125 L 7.515625 -9.125 L 7.515625 -10.703125 L 4.859375 -10.703125 L 4.859375 -14.859375 L 3.15625 -14.859375 L 3.15625 -10.703125 L 0.484375 -10.703125 Z M 0.484375 -9.125 "/></g></g></g><g fill="#000000" fill-opacity="1"><g transform="translate(361.663006, 76.635304)"><g><path d="M 12.28125 -5.59375 C 12.28125 -7.0625 11.703125 -8.3125 10.578125 -9.421875 C 9.484375 -10.46875 8.171875 -11 6.6875 -11 C 5.140625 -11 3.8125 -10.4375 2.71875 -9.34375 C 1.625 -8.25 1.09375 -6.9375 1.09375 -5.40625 C 1.09375 -3.84375 1.625 -2.53125 2.71875 -1.453125 C 3.234375 -0.953125 3.8125 -0.5625 4.5 -0.265625 C 5.1875 0.03125 5.984375 0.171875 6.9375 0.171875 C 7.875 0.171875 8.8125 -0.125 9.734375 -0.703125 C 10.65625 -1.296875 11.34375 -2.109375 11.796875 -3.140625 L 9.859375 -3.140625 C 9.46875 -2.625 9 -2.234375 8.4375 -1.953125 C 7.875 -1.65625 7.296875 -1.53125 6.6875 -1.53125 C 5.765625 -1.53125 4.9375 -1.828125 4.203125 -2.4375 C 3.484375 -3.015625 3.015625 -3.765625 2.875 -4.703125 L 12.28125 -4.703125 Z M 10.484375 -6.15625 L 2.890625 -6.15625 C 3 -6.59375 3.15625 -7 3.40625 -7.390625 C 4.1875 -8.65625 5.28125 -9.296875 6.6875 -9.296875 C 7.59375 -9.296875 8.390625 -9 9.09375 -8.421875 C 9.828125 -7.8125 10.265625 -7.0625 10.484375 -6.15625 Z M 10.484375 -6.15625 "/></g></g></g><g fill="#000000" fill-opacity="1"><g transform="translate(379.786338, 76.635304)"><g><path d="M 7.328125 -8.484375 L 7.328125 -10.703125 C 6.984375 -10.84375 6.625 -10.921875 6.25 -10.921875 C 5.03125 -10.921875 4.15625 -10.234375 3.59375 -8.921875 L 3.53125 -8.484375 L 3.53125 -10.703125 L 1.828125 -10.703125 L 1.828125 0 L 3.53125 0 L 3.53125 -5.359375 C 3.53125 -6.234375 3.71875 -7 4.140625 -7.71875 C 4.328125 -8.078125 4.59375 -8.390625 4.921875 -8.640625 C 5.234375 -8.875 5.625 -9.03125 6.0625 -9.03125 C 6.5 -9.03125 6.90625 -8.828125 7.328125 -8.484375 Z M 7.328125 -8.484375 "/></g></g></g></svg>