<svg xmlns="http://www.w3.org/2000/svg" xmlns:xlink="http://www.w3.org/1999/xlink" width="545" zoomAndPan="magnify" viewBox="0 0 408.75 121.500001" height="162" preserveAspectRatio="xMidYMid meet" version="1.0"><defs><g/></defs><g fill="#000000" fill-opacity="1"><g transform="translate(13.49693, 51.623987)"><g><path d="M 21.46875 -7.8125 C 21.46875 -9.796875 20.96875 -11.5 20.015625 -12.828125 C 19.03125 -14.140625 17.703125 -15.0625 16.09375 -15.515625 C 17.046875 -15.921875 17.875 -16.671875 18.484375 -17.78125 C 18.78125 -18.28125 18.984375 -18.78125 19.15625 -19.3125 C 19.3125 -19.859375 19.390625 -20.59375 19.390625 -21.546875 C 19.390625 -22.453125 19.15625 -23.40625 18.734375 -24.3125 C 17.5 -26.84375 14.8125 -28.125 10.71875 -28.125 L 3.109375 -28.125 L 3.109375 0 L 11.703125 0 C 14.5625 0 16.828125 -0.625 18.578125 -1.9375 C 19.4375 -2.609375 20.140625 -3.46875 20.6875 -4.546875 C 21.171875 -5.578125 21.46875 -6.65625 21.46875 -7.8125 Z M 16.5 -21.09375 C 16.5 -19.5625 16.046875 -18.453125 15.140625 -17.703125 C 14.234375 -16.953125 13.03125 -16.578125 11.546875 -16.578125 L 6 -16.578125 L 6 -25.359375 L 10.71875 -25.359375 C 14.5625 -25.359375 16.5 -23.90625 16.5 -21.09375 Z M 18.578125 -8.390625 C 18.578125 -6.703125 17.984375 -5.328125 16.828125 -4.296875 C 15.71875 -3.265625 14.265625 -2.765625 12.53125 -2.765625 L 6 -2.765625 L 6 -13.6875 L 12.984375 -13.6875 C 14.4375 -13.6875 15.71875 -13.1875 16.828125 -12.203125 C 17.328125 -11.75 17.75 -11.203125 18.078125 -10.59375 C 18.40625 -9.921875 18.578125 -9.21875 18.578125 -8.390625 Z M 18.578125 -8.390625 "/></g></g></g><g fill="#000000" fill-opacity="1"><g transform="translate(44.064889, 51.623987)"><g><path d="M 17.578125 -9.09375 C 17.578125 -7.328125 16.953125 -5.75 15.71875 -4.46875 C 14.46875 -3.140625 12.953125 -2.484375 11.171875 -2.484375 C 9.34375 -2.484375 7.8125 -3.140625 6.578125 -4.46875 C 5.328125 -5.75 4.75 -7.328125 4.75 -9.09375 C 4.75 -10.84375 5.328125 -12.40625 6.578125 -13.734375 C 7.8125 -15.0625 9.34375 -15.71875 11.171875 -15.71875 C 12.953125 -15.71875 14.46875 -15.0625 15.71875 -13.734375 C 16.953125 -12.40625 17.578125 -10.84375 17.578125 -9.09375 Z M 20.46875 0 L 20.46875 -18.203125 L 17.578125 -18.203125 L 17.578125 -15.0625 C 17.40625 -15.296875 17.203125 -15.515625 17.046875 -15.71875 C 15.296875 -17.625 13.1875 -18.609375 10.71875 -18.609375 C 8.1875 -18.609375 6.078125 -17.625 4.34375 -15.71875 C 2.6875 -13.8125 1.859375 -11.625 1.859375 -9.09375 C 1.859375 -6.53125 2.6875 -4.34375 4.34375 -2.484375 C 6.078125 -0.53125 8.1875 0.40625 10.71875 0.40625 C 13.1875 0.40625 15.296875 -0.53125 17.046875 -2.484375 C 17.203125 -2.640625 17.40625 -2.859375 17.578125 -3.109375 L 17.578125 0 Z M 20.46875 0 "/></g></g></g><g fill="#000000" fill-opacity="1"><g transform="translate(75.915044, 51.623987)"><g><path d="M 15.671875 0 L 18.578125 0 L 18.578125 -11.375 C 18.578125 -13.484375 17.984375 -15.171875 16.921875 -16.46875 C 16.34375 -17.125 15.671875 -17.625 14.890625 -17.984375 C 14.0625 -18.359375 13.03125 -18.578125 11.75 -18.578125 C 10.421875 -18.578125 9.3125 -18.203125 8.3125 -17.53125 C 7.359375 -16.921875 6.578125 -16.09375 6 -15.0625 L 6 -18.203125 L 3.109375 -18.203125 L 3.109375 0 L 6 0 L 6 -7.609375 C 6 -9.921875 6.40625 -11.75 7.28125 -13.109375 C 7.78125 -13.859375 8.390625 -14.46875 9.1875 -14.96875 C 9.921875 -15.421875 10.953125 -15.671875 12.203125 -15.671875 C 13.4375 -15.671875 14.3125 -15.21875 14.84375 -14.390625 C 15.390625 -13.5625 15.671875 -12.53125 15.671875 -11.375 Z M 15.671875 0 "/></g></g></g><g fill="#000000" fill-opacity="1"><g transform="translate(105.242168, 51.623987)"><g><path d="M 17.828125 -9.09375 C 17.828125 -7.328125 17.203125 -5.75 15.96875 -4.46875 C 14.71875 -3.140625 13.1875 -2.484375 11.421875 -2.484375 C 9.640625 -2.484375 8.109375 -3.140625 6.859375 -4.46875 C 5.625 -5.75 5 -7.28125 5 -9.09375 C 5 -10.875 5.625 -12.40625 6.859375 -13.734375 C 8.109375 -15.0625 9.640625 -15.71875 11.421875 -15.71875 C 13.1875 -15.71875 14.71875 -15.0625 15.96875 -13.734375 C 17.203125 -12.40625 17.828125 -10.84375 17.828125 -9.09375 Z M 4.921875 2.484375 L 1.9375 2.484375 C 2.28125 4.421875 3.140625 6.125 4.625 7.5625 C 6.453125 9.4375 8.6875 10.34375 11.296875 10.34375 C 13.859375 10.34375 16.09375 9.4375 17.953125 7.5625 C 19.765625 5.75 20.71875 3.515625 20.71875 0.90625 L 20.71875 -18.203125 L 17.828125 -18.203125 L 17.828125 -15.140625 C 17.65625 -15.296875 17.5 -15.515625 17.328125 -15.71875 C 15.515625 -17.625 13.40625 -18.609375 11 -18.609375 C 8.4375 -18.609375 6.328125 -17.625 4.59375 -15.71875 C 2.9375 -13.8125 2.109375 -11.625 2.109375 -9.09375 C 2.109375 -6.53125 2.9375 -4.34375 4.59375 -2.484375 C 6.328125 -0.53125 8.4375 0.40625 11 0.40625 C 13.484375 0.40625 15.59375 -0.53125 17.328125 -2.484375 C 17.5 -2.640625 17.65625 -2.859375 17.828125 -3.015625 L 17.828125 0.90625 C 17.828125 2.734375 17.171875 4.265625 15.875 5.546875 C 14.59375 6.828125 13.0625 7.4375 11.296875 7.4375 C 9.46875 7.4375 7.9375 6.828125 6.65625 5.546875 C 5.75 4.625 5.171875 3.640625 4.921875 2.484375 Z M 4.921875 2.484375 "/></g></g></g><g fill="#000000" fill-opacity="1"><g transform="translate(137.340485, 51.623987)"><g><path d="M 17.578125 -9.09375 C 17.578125 -7.328125 16.953125 -5.75 15.71875 -4.46875 C 14.46875 -3.140625 12.953125 -2.484375 11.171875 -2.484375 C 9.34375 -2.484375 7.8125 -3.140625 6.578125 -4.46875 C 5.328125 -5.75 4.75 -7.328125 4.75 -9.09375 C 4.75 -10.84375 5.328125 -12.40625 6.578125 -13.734375 C 7.8125 -15.0625 9.34375 -15.71875 11.171875 -15.71875 C 12.953125 -15.71875 14.46875 -15.0625 15.71875 -13.734375 C 16.953125 -12.40625 17.578125 -10.84375 17.578125 -9.09375 Z M 20.46875 0 L 20.46875 -18.203125 L 17.578125 -18.203125 L 17.578125 -15.0625 C 17.40625 -15.296875 17.203125 -15.515625 17.046875 -15.71875 C 15.296875 -17.625 13.1875 -18.609375 10.71875 -18.609375 C 8.1875 -18.609375 6.078125 -17.625 4.34375 -15.71875 C 2.6875 -13.8125 1.859375 -11.625 1.859375 -9.09375 C 1.859375 -6.53125 2.6875 -4.34375 4.34375 -2.484375 C 6.078125 -0.53125 8.1875 0.40625 10.71875 0.40625 C 13.1875 0.40625 15.296875 -0.53125 17.046875 -2.484375 C 17.203125 -2.640625 17.40625 -2.859375 17.578125 -3.109375 L 17.578125 0 Z M 20.46875 0 "/></g></g></g><g fill="#000000" fill-opacity="1"><g transform="translate(169.190639, 51.623987)"><g><path d="M 6 0 L 6 -31.015625 L 3.109375 -31.015625 L 3.109375 0 Z M 6 0 "/></g></g></g><g fill="#000000" fill-opacity="1"><g transform="translate(186.564401, 51.623987)"><g><path d="M 17.984375 -9.1875 C 17.984375 -7.359375 17.328125 -5.828125 16.046875 -4.546875 C 14.71875 -3.21875 13.1875 -2.609375 11.375 -2.609375 C 9.546875 -2.609375 7.984375 -3.21875 6.703125 -4.546875 C 5.375 -5.828125 4.75 -7.359375 4.75 -9.1875 C 4.75 -11 5.375 -12.53125 6.703125 -13.859375 C 7.984375 -15.140625 9.546875 -15.796875 11.375 -15.796875 C 13.1875 -15.796875 14.71875 -15.140625 16.046875 -13.859375 C 17.328125 -12.53125 17.984375 -11 17.984375 -9.1875 Z M 20.890625 -9.1875 C 20.890625 -11.78125 19.9375 -14.015625 18.078125 -15.875 C 16.21875 -17.75 13.984375 -18.6875 11.375 -18.6875 C 8.734375 -18.6875 6.5 -17.75 4.625 -15.875 C 2.765625 -14.015625 1.859375 -11.78125 1.859375 -9.1875 C 1.859375 -6.53125 2.765625 -4.296875 4.625 -2.484375 C 6.5 -0.625 8.765625 0.296875 11.375 0.296875 C 13.9375 0.296875 16.21875 -0.625 18.078125 -2.484375 C 19.9375 -4.296875 20.890625 -6.53125 20.890625 -9.1875 Z M 20.890625 -9.1875 "/></g></g></g><g fill="#000000" fill-opacity="1"><g transform="translate(217.587325, 51.623987)"><g><path d="M 12.453125 -14.4375 L 12.453125 -18.203125 C 11.875 -18.453125 11.25 -18.578125 10.625 -18.578125 C 8.5625 -18.578125 7.078125 -17.40625 6.125 -15.171875 L 6 -14.4375 L 6 -18.203125 L 3.109375 -18.203125 L 3.109375 0 L 6 0 L 6 -9.09375 C 6 -10.59375 6.328125 -11.90625 7.03125 -13.109375 C 7.359375 -13.734375 7.8125 -14.265625 8.359375 -14.6875 C 8.890625 -15.09375 9.546875 -15.34375 10.296875 -15.34375 C 11.046875 -15.34375 11.75 -15.015625 12.453125 -14.4375 Z M 12.453125 -14.4375 "/></g></g></g><g fill="#000000" fill-opacity="1"><g transform="translate(238.724941, 51.623987)"><g><path d="M 20.890625 -9.515625 C 20.890625 -12 19.890625 -14.140625 17.984375 -16 C 16.125 -17.78125 13.890625 -18.6875 11.375 -18.6875 C 8.734375 -18.6875 6.5 -17.75 4.625 -15.875 C 2.765625 -14.015625 1.859375 -11.78125 1.859375 -9.1875 C 1.859375 -6.53125 2.765625 -4.296875 4.625 -2.484375 C 5.5 -1.609375 6.5 -0.953125 7.65625 -0.453125 C 8.8125 0.046875 10.171875 0.296875 11.78125 0.296875 C 13.40625 0.296875 14.96875 -0.203125 16.546875 -1.203125 C 18.109375 -2.1875 19.28125 -3.59375 20.0625 -5.328125 L 16.75 -5.328125 C 16.09375 -4.46875 15.296875 -3.8125 14.359375 -3.3125 C 13.40625 -2.8125 12.40625 -2.609375 11.375 -2.609375 C 9.796875 -2.609375 8.390625 -3.109375 7.15625 -4.140625 C 5.921875 -5.125 5.125 -6.40625 4.875 -7.984375 L 20.890625 -7.984375 Z M 17.828125 -10.46875 L 4.921875 -10.46875 C 5.09375 -11.203125 5.375 -11.90625 5.796875 -12.578125 C 7.109375 -14.71875 8.96875 -15.796875 11.375 -15.796875 C 12.90625 -15.796875 14.265625 -15.296875 15.46875 -14.3125 C 16.703125 -13.28125 17.453125 -12 17.828125 -10.46875 Z M 17.828125 -10.46875 "/></g></g></g><g fill="#000000" fill-opacity="1"><g transform="translate(13.49693, 97.461042)"><g><path d="M 10.875 -13.234375 C 14.515625 -12.359375 17 -11.421875 18.328125 -10.34375 C 19.234375 -9.59375 19.6875 -8.640625 19.6875 -7.484375 C 19.6875 -6.328125 19.4375 -5.375 18.9375 -4.71875 C 17.703125 -2.984375 15.46875 -2.109375 12.328125 -2.109375 C 7.9375 -2.109375 5.453125 -3.59375 4.921875 -6.578125 L 1.53125 -6.578125 C 2.515625 -1.8125 6.125 0.53125 12.328125 0.53125 C 15.09375 0.53125 17.40625 -0.046875 19.28125 -1.28125 C 21.5 -2.734375 22.671875 -4.875 22.671875 -7.6875 C 22.671875 -10.015625 21.75 -11.78125 19.9375 -13.03125 C 18.65625 -13.9375 16.578125 -14.765625 13.734375 -15.515625 C 10.84375 -16.25 8.96875 -16.875 8.109375 -17.328125 C 6.203125 -18.28125 5.25 -19.609375 5.296875 -21.34375 C 5.296875 -22.25 5.453125 -23.03125 5.875 -23.609375 C 6.953125 -25.234375 8.84375 -26.0625 11.578125 -26.0625 C 15.421875 -26.0625 17.625 -24.8125 18.203125 -22.421875 L 21.34375 -22.421875 C 20.3125 -26.46875 17.046875 -28.53125 11.578125 -28.53125 C 9.09375 -28.53125 6.90625 -27.875 5.09375 -26.546875 C 3.21875 -25.234375 2.28125 -23.28125 2.28125 -20.640625 C 2.28125 -17.046875 5.171875 -14.5625 10.875 -13.234375 Z M 10.875 -13.234375 "/></g></g></g><g fill="#000000" fill-opacity="1"><g transform="translate(45.512526, 97.461042)"><g><path d="M 20.890625 -9.515625 C 20.890625 -12 19.890625 -14.140625 17.984375 -16 C 16.125 -17.78125 13.890625 -18.6875 11.375 -18.6875 C 8.734375 -18.6875 6.5 -17.75 4.625 -15.875 C 2.765625 -14.015625 1.859375 -11.78125 1.859375 -9.1875 C 1.859375 -6.53125 2.765625 -4.296875 4.625 -2.484375 C 5.5 -1.609375 6.5 -0.953125 7.65625 -0.453125 C 8.8125 0.046875 10.171875 0.296875 11.78125 0.296875 C 13.40625 0.296875 14.96875 -0.203125 16.546875 -1.203125 C 18.109375 -2.1875 19.28125 -3.59375 20.0625 -5.328125 L 16.75 -5.328125 C 16.09375 -4.46875 15.296875 -3.8125 14.359375 -3.3125 C 13.40625 -2.8125 12.40625 -2.609375 11.375 -2.609375 C 9.796875 -2.609375 8.390625 -3.109375 7.15625 -4.140625 C 5.921875 -5.125 5.125 -6.40625 4.875 -7.984375 L 20.890625 -7.984375 Z M 17.828125 -10.46875 L 4.921875 -10.46875 C 5.09375 -11.203125 5.375 -11.90625 5.796875 -12.578125 C 7.109375 -14.71875 8.96875 -15.796875 11.375 -15.796875 C 12.90625 -15.796875 14.265625 -15.296875 15.46875 -14.3125 C 16.703125 -13.28125 17.453125 -12 17.828125 -10.46875 Z M 17.828125 -10.46875 "/></g></g></g><g fill="#000000" fill-opacity="1"><g transform="translate(76.328648, 97.461042)"><g><path d="M 12.453125 -14.4375 L 12.453125 -18.203125 C 11.875 -18.453125 11.25 -18.578125 10.625 -18.578125 C 8.5625 -18.578125 7.078125 -17.40625 6.125 -15.171875 L 6 -14.4375 L 6 -18.203125 L 3.109375 -18.203125 L 3.109375 0 L 6 0 L 6 -9.09375 C 6 -10.59375 6.328125 -11.90625 7.03125 -13.109375 C 7.359375 -13.734375 7.8125 -14.265625 8.359375 -14.6875 C 8.890625 -15.09375 9.546875 -15.34375 10.296875 -15.34375 C 11.046875 -15.34375 11.75 -15.015625 12.453125 -14.4375 Z M 12.453125 -14.4375 "/></g></g></g><g fill="#000000" fill-opacity="1"><g transform="translate(97.466264, 97.461042)"><g><path d="M 8.8125 1.734375 L 17.171875 -18.203125 L 14.015625 -18.203125 L 8.8125 -4.671875 L 3.5625 -18.203125 L 0.40625 -18.203125 Z M 8.8125 1.734375 "/></g></g></g><g fill="#000000" fill-opacity="1"><g transform="translate(123.319058, 97.461042)"><g><path d="M 6.03125 -24.484375 C 5.671875 -24.8125 5.21875 -25.015625 4.71875 -25.015625 C 4.21875 -25.015625 3.765625 -24.8125 3.4375 -24.484375 C 3.0625 -24.109375 2.890625 -23.65625 2.890625 -23.15625 C 2.890625 -22.671875 3.0625 -22.203125 3.4375 -21.875 C 3.765625 -21.5 4.21875 -21.34375 4.71875 -21.34375 C 5.21875 -21.34375 5.671875 -21.5 6.03125 -21.875 C 6.375 -22.203125 6.578125 -22.671875 6.578125 -23.15625 C 6.578125 -23.65625 6.375 -24.109375 6.03125 -24.484375 Z M 6.203125 0 L 6.203125 -18.203125 L 3.3125 -18.203125 L 3.3125 0 Z M 6.203125 0 "/></g></g></g><g fill="#000000" fill-opacity="1"><g transform="translate(141.065064, 97.461042)"><g><path d="M 20.09375 -11.65625 C 19.515625 -13.6875 18.40625 -15.34375 16.796875 -16.625 C 15.09375 -17.90625 13.234375 -18.578125 11.171875 -18.578125 C 8.5625 -18.578125 6.328125 -17.625 4.546875 -15.765625 C 2.734375 -13.890625 1.859375 -11.65625 1.859375 -9.09375 C 1.859375 -6.5 2.734375 -4.296875 4.546875 -2.40625 C 5.375 -1.53125 6.328125 -0.828125 7.484375 -0.328125 C 8.609375 0.171875 9.765625 0.40625 10.921875 0.40625 C 12.078125 0.40625 13.109375 0.296875 14.015625 -0.046875 C 16.921875 -1.078125 18.90625 -3.015625 19.9375 -5.953125 L 16.671875 -5.953125 C 16.09375 -4.921875 15.34375 -4.09375 14.359375 -3.515625 C 13.359375 -2.890625 12.328125 -2.609375 11.171875 -2.609375 C 9.390625 -2.609375 7.90625 -3.21875 6.65625 -4.515625 C 5.421875 -5.796875 4.84375 -7.328125 4.84375 -9.09375 C 4.84375 -10.796875 5.421875 -12.328125 6.65625 -13.609375 C 7.234375 -14.1875 7.90625 -14.6875 8.6875 -15.015625 C 9.4375 -15.34375 10.375 -15.546875 11.453125 -15.546875 C 12.53125 -15.546875 13.5625 -15.171875 14.640625 -14.46875 C 15.671875 -13.734375 16.46875 -12.828125 16.953125 -11.65625 Z M 20.09375 -11.65625 "/></g></g></g><g fill="#000000" fill-opacity="1"><g transform="translate(170.888525, 97.461042)"><g><path d="M 20.890625 -9.515625 C 20.890625 -12 19.890625 -14.140625 17.984375 -16 C 16.125 -17.78125 13.890625 -18.6875 11.375 -18.6875 C 8.734375 -18.6875 6.5 -17.75 4.625 -15.875 C 2.765625 -14.015625 1.859375 -11.78125 1.859375 -9.1875 C 1.859375 -6.53125 2.765625 -4.296875 4.625 -2.484375 C 5.5 -1.609375 6.5 -0.953125 7.65625 -0.453125 C 8.8125 0.046875 10.171875 0.296875 11.78125 0.296875 C 13.40625 0.296875 14.96875 -0.203125 16.546875 -1.203125 C 18.109375 -2.1875 19.28125 -3.59375 20.0625 -5.328125 L 16.75 -5.328125 C 16.09375 -4.46875 15.296875 -3.8125 14.359375 -3.3125 C 13.40625 -2.8125 12.40625 -2.609375 11.375 -2.609375 C 9.796875 -2.609375 8.390625 -3.109375 7.15625 -4.140625 C 5.921875 -5.125 5.125 -6.40625 4.875 -7.984375 L 20.890625 -7.984375 Z M 17.828125 -10.46875 L 4.921875 -10.46875 C 5.09375 -11.203125 5.375 -11.90625 5.796875 -12.578125 C 7.109375 -14.71875 8.96875 -15.796875 11.375 -15.796875 C 12.90625 -15.796875 14.265625 -15.296875 15.46875 -14.3125 C 16.703125 -13.28125 17.453125 -12 17.828125 -10.46875 Z M 17.828125 -10.46875 "/></g></g></g><g fill="#000000" fill-opacity="1"><g transform="translate(201.704646, 97.461042)"><g/></g></g><g fill="#000000" fill-opacity="1"><g transform="translate(221.146464, 97.461042)"><g><path d="M 28.90625 -8.609375 L 25.71875 -8.609375 C 24.734375 -6.78125 23.375 -5.296875 21.625 -4.21875 C 19.890625 -3.109375 17.953125 -2.5625 15.875 -2.5625 C 12.78125 -2.5625 10.140625 -3.6875 7.9375 -6 C 5.796875 -8.1875 4.75 -10.875 4.75 -14.015625 C 4.75 -17.171875 5.796875 -19.859375 7.9375 -22.078125 C 8.9375 -23.125 10.140625 -23.953125 11.5 -24.5625 C 12.828125 -25.1875 14.140625 -25.515625 15.46875 -25.515625 C 16.75 -25.515625 17.875 -25.359375 18.859375 -25.0625 C 21.875 -24.15625 24.15625 -22.328125 25.6875 -19.5625 L 28.875 -19.5625 C 27.796875 -22.203125 26.09375 -24.359375 23.734375 -26.015625 C 21.34375 -27.671875 18.734375 -28.5 15.875 -28.5 C 11.953125 -28.5 8.640625 -27.046875 5.921875 -24.1875 C 4.625 -22.875 3.640625 -21.296875 2.9375 -19.5625 C 2.1875 -17.828125 1.859375 -15.96875 1.859375 -14.015625 C 1.859375 -10.046875 3.1875 -6.703125 5.921875 -3.890625 C 8.640625 -1 11.953125 0.40625 15.875 0.40625 C 18.734375 0.40625 21.34375 -0.40625 23.78125 -2.0625 C 26.140625 -3.71875 27.828125 -5.875 28.90625 -8.609375 Z M 28.90625 -8.609375 "/></g></g></g><g fill="#000000" fill-opacity="1"><g transform="translate(259.573025, 97.461042)"><g><path d="M 20.890625 -9.515625 C 20.890625 -12 19.890625 -14.140625 17.984375 -16 C 16.125 -17.78125 13.890625 -18.6875 11.375 -18.6875 C 8.734375 -18.6875 6.5 -17.75 4.625 -15.875 C 2.765625 -14.015625 1.859375 -11.78125 1.859375 -9.1875 C 1.859375 -6.53125 2.765625 -4.296875 4.625 -2.484375 C 5.5 -1.609375 6.5 -0.953125 7.65625 -0.453125 C 8.8125 0.046875 10.171875 0.296875 11.78125 0.296875 C 13.40625 0.296875 14.96875 -0.203125 16.546875 -1.203125 C 18.109375 -2.1875 19.28125 -3.59375 20.0625 -5.328125 L 16.75 -5.328125 C 16.09375 -4.46875 15.296875 -3.8125 14.359375 -3.3125 C 13.40625 -2.8125 12.40625 -2.609375 11.375 -2.609375 C 9.796875 -2.609375 8.390625 -3.109375 7.15625 -4.140625 C 5.921875 -5.125 5.125 -6.40625 4.875 -7.984375 L 20.890625 -7.984375 Z M 17.828125 -10.46875 L 4.921875 -10.46875 C 5.09375 -11.203125 5.375 -11.90625 5.796875 -12.578125 C 7.109375 -14.71875 8.96875 -15.796875 11.375 -15.796875 C 12.90625 -15.796875 14.265625 -15.296875 15.46875 -14.3125 C 16.703125 -13.28125 17.453125 -12 17.828125 -10.46875 Z M 17.828125 -10.46875 "/></g></g></g><g fill="#000000" fill-opacity="1"><g transform="translate(290.389158, 97.461042)"><g><path d="M 15.671875 0 L 18.578125 0 L 18.578125 -11.375 C 18.578125 -13.484375 17.984375 -15.171875 16.921875 -16.46875 C 16.34375 -17.125 15.671875 -17.625 14.890625 -17.984375 C 14.0625 -18.359375 13.03125 -18.578125 11.75 -18.578125 C 10.421875 -18.578125 9.3125 -18.203125 8.3125 -17.53125 C 7.359375 -16.921875 6.578125 -16.09375 6 -15.0625 L 6 -18.203125 L 3.109375 -18.203125 L 3.109375 0 L 6 0 L 6 -7.609375 C 6 -9.921875 6.40625 -11.75 7.28125 -13.109375 C 7.78125 -13.859375 8.390625 -14.46875 9.1875 -14.96875 C 9.921875 -15.421875 10.953125 -15.671875 12.203125 -15.671875 C 13.4375 -15.671875 14.3125 -15.21875 14.84375 -14.390625 C 15.390625 -13.5625 15.671875 -12.53125 15.671875 -11.375 Z M 15.671875 0 "/></g></g></g><g fill="#000000" fill-opacity="1"><g transform="translate(319.716271, 97.461042)"><g><path d="M 0.828125 -15.515625 L 5.375 -15.515625 L 5.375 0 L 8.265625 0 L 8.265625 -15.515625 L 12.78125 -15.515625 L 12.78125 -18.203125 L 8.265625 -18.203125 L 8.265625 -25.265625 L 5.375 -25.265625 L 5.375 -18.203125 L 0.828125 -18.203125 Z M 0.828125 -15.515625 "/></g></g></g><g fill="#000000" fill-opacity="1"><g transform="translate(341.598397, 97.461042)"><g><path d="M 20.890625 -9.515625 C 20.890625 -12 19.890625 -14.140625 17.984375 -16 C 16.125 -17.78125 13.890625 -18.6875 11.375 -18.6875 C 8.734375 -18.6875 6.5 -17.75 4.625 -15.875 C 2.765625 -14.015625 1.859375 -11.78125 1.859375 -9.1875 C 1.859375 -6.53125 2.765625 -4.296875 4.625 -2.484375 C 5.5 -1.609375 6.5 -0.953125 7.65625 -0.453125 C 8.8125 0.046875 10.171875 0.296875 11.78125 0.296875 C 13.40625 0.296875 14.96875 -0.203125 16.546875 -1.203125 C 18.109375 -2.1875 19.28125 -3.59375 20.0625 -5.328125 L 16.75 -5.328125 C 16.09375 -4.46875 15.296875 -3.8125 14.359375 -3.3125 C 13.40625 -2.8125 12.40625 -2.609375 11.375 -2.609375 C 9.796875 -2.609375 8.390625 -3.109375 7.15625 -4.140625 C 5.921875 -5.125 5.125 -6.40625 4.875 -7.984375 L 20.890625 -7.984375 Z M 17.828125 -10.46875 L 4.921875 -10.46875 C 5.09375 -11.203125 5.375 -11.90625 5.796875 -12.578125 C 7.109375 -14.71875 8.96875 -15.796875 11.375 -15.796875 C 12.90625 -15.796875 14.265625 -15.296875 15.46875 -14.3125 C 16.703125 -13.28125 17.453125 -12 17.828125 -10.46875 Z M 17.828125 -10.46875 "/></g></g></g><g fill="#000000" fill-opacity="1"><g transform="translate(372.414508, 97.461042)"><g><path d="M 12.453125 -14.4375 L 12.453125 -18.203125 C 11.875 -18.453125 11.25 -18.578125 10.625 -18.578125 C 8.5625 -18.578125 7.078125 -17.40625 6.125 -15.171875 L 6 -14.4375 L 6 -18.203125 L 3.109375 -18.203125 L 3.109375 0 L 6 0 L 6 -9.09375 C 6 -10.59375 6.328125 -11.90625 7.03125 -13.109375 C 7.359375 -13.734375 7.8125 -14.265625 8.359375 -14.6875 C 8.890625 -15.09375 9.546875 -15.34375 10.296875 -15.34375 C 11.046875 -15.34375 11.75 -15.015625 12.453125 -14.4375 Z M 12.453125 -14.4375 "/></g></g></g></svg>