<svg xmlns="http://www.w3.org/2000/svg" xmlns:xlink="http://www.w3.org/1999/xlink" width="520" zoomAndPan="magnify" viewBox="0 0 390 43.499998" height="58" preserveAspectRatio="xMidYMid meet" version="1.0"><defs><g/></defs><g fill="#000000" fill-opacity="1"><g transform="translate(9.443313, 29.071239)"><g><path d="M 12.140625 -4.421875 C 12.140625 -5.546875 11.859375 -6.5 11.328125 -7.25 C 10.765625 -8 10.015625 -8.515625 9.09375 -8.765625 C 9.640625 -9 10.109375 -9.421875 10.453125 -10.0625 C 10.625 -10.34375 10.734375 -10.625 10.828125 -10.921875 C 10.921875 -11.234375 10.96875 -11.65625 10.96875 -12.1875 C 10.96875 -12.703125 10.828125 -13.234375 10.59375 -13.75 C 9.890625 -15.1875 8.375 -15.90625 6.0625 -15.90625 L 1.75 -15.90625 L 1.75 0 L 6.625 0 C 8.234375 0 9.515625 -0.34375 10.5 -1.09375 C 11 -1.46875 11.390625 -1.96875 11.6875 -2.578125 C 11.96875 -3.15625 12.140625 -3.765625 12.140625 -4.421875 Z M 9.328125 -11.921875 C 9.328125 -11.0625 9.078125 -10.4375 8.5625 -10.015625 C 8.046875 -9.59375 7.375 -9.375 6.53125 -9.375 L 3.390625 -9.375 L 3.390625 -14.34375 L 6.0625 -14.34375 C 8.234375 -14.34375 9.328125 -13.515625 9.328125 -11.921875 Z M 10.5 -4.75 C 10.5 -3.796875 10.171875 -3.015625 9.515625 -2.4375 C 8.890625 -1.84375 8.0625 -1.5625 7.09375 -1.5625 L 3.390625 -1.5625 L 3.390625 -7.75 L 7.34375 -7.75 C 8.15625 -7.75 8.890625 -7.46875 9.515625 -6.90625 C 9.796875 -6.640625 10.03125 -6.34375 10.21875 -5.984375 C 10.40625 -5.609375 10.5 -5.21875 10.5 -4.75 Z M 10.5 -4.75 "/></g></g></g><g fill="#000000" fill-opacity="1"><g transform="translate(26.726092, 29.071239)"><g><path d="M 9.9375 -5.140625 C 9.9375 -4.140625 9.59375 -3.25 8.890625 -2.53125 C 8.1875 -1.78125 7.328125 -1.40625 6.3125 -1.40625 C 5.28125 -1.40625 4.421875 -1.78125 3.71875 -2.53125 C 3.015625 -3.25 2.6875 -4.140625 2.6875 -5.140625 C 2.6875 -6.125 3.015625 -7.015625 3.71875 -7.765625 C 4.421875 -8.515625 5.28125 -8.890625 6.3125 -8.890625 C 7.328125 -8.890625 8.1875 -8.515625 8.890625 -7.765625 C 9.59375 -7.015625 9.9375 -6.125 9.9375 -5.140625 Z M 11.578125 0 L 11.578125 -10.296875 L 9.9375 -10.296875 L 9.9375 -8.515625 C 9.84375 -8.65625 9.734375 -8.765625 9.640625 -8.890625 C 8.65625 -9.96875 7.46875 -10.53125 6.0625 -10.53125 C 4.625 -10.53125 3.4375 -9.96875 2.453125 -8.890625 C 1.515625 -7.8125 1.046875 -6.578125 1.046875 -5.140625 C 1.046875 -3.703125 1.515625 -2.453125 2.453125 -1.40625 C 3.4375 -0.296875 4.625 0.234375 6.0625 0.234375 C 7.46875 0.234375 8.65625 -0.296875 9.640625 -1.40625 C 9.734375 -1.5 9.84375 -1.609375 9.9375 -1.75 L 9.9375 0 Z M 11.578125 0 "/></g></g></g><g fill="#000000" fill-opacity="1"><g transform="translate(44.733822, 29.071239)"><g><path d="M 8.859375 0 L 10.5 0 L 10.5 -6.4375 C 10.5 -7.625 10.171875 -8.578125 9.5625 -9.3125 C 9.234375 -9.6875 8.859375 -9.96875 8.421875 -10.171875 C 7.953125 -10.390625 7.375 -10.5 6.640625 -10.5 C 5.890625 -10.5 5.265625 -10.296875 4.703125 -9.921875 C 4.15625 -9.5625 3.71875 -9.09375 3.390625 -8.515625 L 3.390625 -10.296875 L 1.75 -10.296875 L 1.75 0 L 3.390625 0 L 3.390625 -4.296875 C 3.390625 -5.609375 3.625 -6.640625 4.109375 -7.421875 C 4.390625 -7.828125 4.75 -8.1875 5.1875 -8.46875 C 5.609375 -8.71875 6.203125 -8.859375 6.90625 -8.859375 C 7.609375 -8.859375 8.09375 -8.609375 8.390625 -8.140625 C 8.703125 -7.671875 8.859375 -7.09375 8.859375 -6.4375 Z M 8.859375 0 "/></g></g></g><g fill="#000000" fill-opacity="1"><g transform="translate(61.315026, 29.071239)"><g><path d="M 10.078125 -5.140625 C 10.078125 -4.140625 9.734375 -3.25 9.03125 -2.53125 C 8.328125 -1.78125 7.46875 -1.40625 6.453125 -1.40625 C 5.453125 -1.40625 4.578125 -1.78125 3.890625 -2.53125 C 3.1875 -3.25 2.828125 -4.109375 2.828125 -5.140625 C 2.828125 -6.15625 3.1875 -7.015625 3.890625 -7.765625 C 4.578125 -8.515625 5.453125 -8.890625 6.453125 -8.890625 C 7.46875 -8.890625 8.328125 -8.515625 9.03125 -7.765625 C 9.734375 -7.015625 10.078125 -6.125 10.078125 -5.140625 Z M 2.78125 1.40625 L 1.09375 1.40625 C 1.28125 2.5 1.78125 3.46875 2.625 4.28125 C 3.65625 5.328125 4.90625 5.84375 6.390625 5.84375 C 7.828125 5.84375 9.09375 5.328125 10.15625 4.28125 C 11.1875 3.25 11.71875 1.984375 11.71875 0.515625 L 11.71875 -10.296875 L 10.078125 -10.296875 L 10.078125 -8.5625 C 9.984375 -8.65625 9.890625 -8.765625 9.796875 -8.890625 C 8.765625 -9.96875 7.578125 -10.53125 6.21875 -10.53125 C 4.765625 -10.53125 3.578125 -9.96875 2.59375 -8.890625 C 1.65625 -7.8125 1.1875 -6.578125 1.1875 -5.140625 C 1.1875 -3.703125 1.65625 -2.453125 2.59375 -1.40625 C 3.578125 -0.296875 4.765625 0.234375 6.21875 0.234375 C 7.625 0.234375 8.8125 -0.296875 9.796875 -1.40625 C 9.890625 -1.5 9.984375 -1.609375 10.078125 -1.703125 L 10.078125 0.515625 C 10.078125 1.546875 9.703125 2.40625 8.984375 3.140625 C 8.25 3.859375 7.390625 4.203125 6.390625 4.203125 C 5.359375 4.203125 4.484375 3.859375 3.765625 3.140625 C 3.25 2.625 2.921875 2.0625 2.78125 1.40625 Z M 2.78125 1.40625 "/></g></g></g><g fill="#000000" fill-opacity="1"><g transform="translate(79.463069, 29.071239)"><g><path d="M 9.9375 -5.140625 C 9.9375 -4.140625 9.59375 -3.25 8.890625 -2.53125 C 8.1875 -1.78125 7.328125 -1.40625 6.3125 -1.40625 C 5.28125 -1.40625 4.421875 -1.78125 3.71875 -2.53125 C 3.015625 -3.25 2.6875 -4.140625 2.6875 -5.140625 C 2.6875 -6.125 3.015625 -7.015625 3.71875 -7.765625 C 4.421875 -8.515625 5.28125 -8.890625 6.3125 -8.890625 C 7.328125 -8.890625 8.1875 -8.515625 8.890625 -7.765625 C 9.59375 -7.015625 9.9375 -6.125 9.9375 -5.140625 Z M 11.578125 0 L 11.578125 -10.296875 L 9.9375 -10.296875 L 9.9375 -8.515625 C 9.84375 -8.65625 9.734375 -8.765625 9.640625 -8.890625 C 8.65625 -9.96875 7.46875 -10.53125 6.0625 -10.53125 C 4.625 -10.53125 3.4375 -9.96875 2.453125 -8.890625 C 1.515625 -7.8125 1.046875 -6.578125 1.046875 -5.140625 C 1.046875 -3.703125 1.515625 -2.453125 2.453125 -1.40625 C 3.4375 -0.296875 4.625 0.234375 6.0625 0.234375 C 7.46875 0.234375 8.65625 -0.296875 9.640625 -1.40625 C 9.734375 -1.5 9.84375 -1.609375 9.9375 -1.75 L 9.9375 0 Z M 11.578125 0 "/></g></g></g><g fill="#000000" fill-opacity="1"><g transform="translate(97.4708, 29.071239)"><g><path d="M 3.390625 0 L 3.390625 -17.546875 L 1.75 -17.546875 L 1.75 0 Z M 3.390625 0 "/></g></g></g><g fill="#000000" fill-opacity="1"><g transform="translate(107.293555, 29.071239)"><g><path d="M 10.171875 -5.1875 C 10.171875 -4.15625 9.796875 -3.296875 9.078125 -2.578125 C 8.328125 -1.828125 7.46875 -1.46875 6.4375 -1.46875 C 5.40625 -1.46875 4.515625 -1.828125 3.796875 -2.578125 C 3.046875 -3.296875 2.6875 -4.15625 2.6875 -5.1875 C 2.6875 -6.21875 3.046875 -7.09375 3.796875 -7.828125 C 4.515625 -8.5625 5.40625 -8.9375 6.4375 -8.9375 C 7.46875 -8.9375 8.328125 -8.5625 9.078125 -7.828125 C 9.796875 -7.09375 10.171875 -6.21875 10.171875 -5.1875 Z M 11.8125 -5.1875 C 11.8125 -6.671875 11.28125 -7.921875 10.21875 -8.984375 C 9.171875 -10.03125 7.90625 -10.578125 6.4375 -10.578125 C 4.9375 -10.578125 3.671875 -10.03125 2.625 -8.984375 C 1.5625 -7.921875 1.046875 -6.671875 1.046875 -5.1875 C 1.046875 -3.703125 1.5625 -2.4375 2.625 -1.40625 C 3.671875 -0.34375 4.953125 0.15625 6.4375 0.15625 C 7.875 0.15625 9.171875 -0.34375 10.21875 -1.40625 C 11.28125 -2.4375 11.8125 -3.703125 11.8125 -5.1875 Z M 11.8125 -5.1875 "/></g></g></g><g fill="#000000" fill-opacity="1"><g transform="translate(124.833564, 29.071239)"><g><path d="M 7.046875 -8.15625 L 7.046875 -10.296875 C 6.71875 -10.4375 6.359375 -10.5 6.015625 -10.5 C 4.84375 -10.5 4 -9.84375 3.46875 -8.578125 L 3.390625 -8.15625 L 3.390625 -10.296875 L 1.75 -10.296875 L 1.75 0 L 3.390625 0 L 3.390625 -5.140625 C 3.390625 -5.984375 3.578125 -6.734375 3.96875 -7.421875 C 4.15625 -7.765625 4.421875 -8.0625 4.71875 -8.296875 C 5.03125 -8.53125 5.40625 -8.671875 5.828125 -8.671875 C 6.25 -8.671875 6.640625 -8.484375 7.046875 -8.15625 Z M 7.046875 -8.15625 "/></g></g></g><g fill="#000000" fill-opacity="1"><g transform="translate(136.784416, 29.071239)"><g><path d="M 11.8125 -5.375 C 11.8125 -6.78125 11.25 -8 10.171875 -9.046875 C 9.125 -10.0625 7.859375 -10.578125 6.4375 -10.578125 C 4.9375 -10.578125 3.671875 -10.03125 2.625 -8.984375 C 1.5625 -7.921875 1.046875 -6.671875 1.046875 -5.1875 C 1.046875 -3.703125 1.5625 -2.4375 2.625 -1.40625 C 3.109375 -0.90625 3.671875 -0.53125 4.328125 -0.25 C 4.984375 0.015625 5.75 0.15625 6.671875 0.15625 C 7.578125 0.15625 8.46875 -0.109375 9.359375 -0.671875 C 10.25 -1.234375 10.90625 -2.03125 11.34375 -3.015625 L 9.46875 -3.015625 C 9.09375 -2.53125 8.65625 -2.15625 8.109375 -1.875 C 7.578125 -1.59375 7.015625 -1.46875 6.4375 -1.46875 C 5.546875 -1.46875 4.75 -1.75 4.046875 -2.34375 C 3.34375 -2.90625 2.90625 -3.625 2.765625 -4.515625 L 11.8125 -4.515625 Z M 10.078125 -5.921875 L 2.78125 -5.921875 C 2.875 -6.34375 3.046875 -6.734375 3.28125 -7.109375 C 4.015625 -8.328125 5.078125 -8.9375 6.4375 -8.9375 C 7.296875 -8.9375 8.0625 -8.65625 8.75 -8.09375 C 9.453125 -7.515625 9.875 -6.78125 10.078125 -5.921875 Z M 10.078125 -5.921875 "/></g></g></g><g fill="#000000" fill-opacity="1"><g transform="translate(154.207502, 29.071239)"><g/></g></g><g fill="#000000" fill-opacity="1"><g transform="translate(165.199545, 29.071239)"><g><path d="M 6.15625 -7.484375 C 8.203125 -7 9.609375 -6.453125 10.359375 -5.84375 C 10.875 -5.421875 11.140625 -4.890625 11.140625 -4.234375 C 11.140625 -3.578125 11 -3.046875 10.71875 -2.671875 C 10.015625 -1.6875 8.75 -1.1875 6.96875 -1.1875 C 4.484375 -1.1875 3.09375 -2.03125 2.78125 -3.71875 L 0.859375 -3.71875 C 1.421875 -1.03125 3.46875 0.296875 6.96875 0.296875 C 8.53125 0.296875 9.84375 -0.015625 10.90625 -0.71875 C 12.15625 -1.546875 12.8125 -2.765625 12.8125 -4.34375 C 12.8125 -5.65625 12.296875 -6.671875 11.28125 -7.375 C 10.546875 -7.875 9.375 -8.34375 7.765625 -8.765625 C 6.125 -9.1875 5.078125 -9.546875 4.578125 -9.796875 C 3.515625 -10.34375 2.96875 -11.09375 3 -12.0625 C 3 -12.578125 3.09375 -13.03125 3.328125 -13.359375 C 3.921875 -14.265625 5 -14.734375 6.546875 -14.734375 C 8.71875 -14.734375 9.96875 -14.03125 10.296875 -12.671875 L 12.0625 -12.671875 C 11.484375 -14.96875 9.640625 -16.140625 6.546875 -16.140625 C 5.140625 -16.140625 3.90625 -15.765625 2.875 -15.015625 C 1.828125 -14.265625 1.28125 -13.171875 1.28125 -11.671875 C 1.28125 -9.640625 2.921875 -8.234375 6.15625 -7.484375 Z M 6.15625 -7.484375 "/></g></g></g><g fill="#000000" fill-opacity="1"><g transform="translate(183.300816, 29.071239)"><g><path d="M 11.8125 -5.375 C 11.8125 -6.78125 11.25 -8 10.171875 -9.046875 C 9.125 -10.0625 7.859375 -10.578125 6.4375 -10.578125 C 4.9375 -10.578125 3.671875 -10.03125 2.625 -8.984375 C 1.5625 -7.921875 1.046875 -6.671875 1.046875 -5.1875 C 1.046875 -3.703125 1.5625 -2.4375 2.625 -1.40625 C 3.109375 -0.90625 3.671875 -0.53125 4.328125 -0.25 C 4.984375 0.015625 5.75 0.15625 6.671875 0.15625 C 7.578125 0.15625 8.46875 -0.109375 9.359375 -0.671875 C 10.25 -1.234375 10.90625 -2.03125 11.34375 -3.015625 L 9.46875 -3.015625 C 9.09375 -2.53125 8.65625 -2.15625 8.109375 -1.875 C 7.578125 -1.59375 7.015625 -1.46875 6.4375 -1.46875 C 5.546875 -1.46875 4.75 -1.75 4.046875 -2.34375 C 3.34375 -2.90625 2.90625 -3.625 2.765625 -4.515625 L 11.8125 -4.515625 Z M 10.078125 -5.921875 L 2.78125 -5.921875 C 2.875 -6.34375 3.046875 -6.734375 3.28125 -7.109375 C 4.015625 -8.328125 5.078125 -8.9375 6.4375 -8.9375 C 7.296875 -8.9375 8.0625 -8.65625 8.75 -8.09375 C 9.453125 -7.515625 9.875 -6.78125 10.078125 -5.921875 Z M 10.078125 -5.921875 "/></g></g></g><g fill="#000000" fill-opacity="1"><g transform="translate(200.723902, 29.071239)"><g><path d="M 7.046875 -8.15625 L 7.046875 -10.296875 C 6.71875 -10.4375 6.359375 -10.5 6.015625 -10.5 C 4.84375 -10.5 4 -9.84375 3.46875 -8.578125 L 3.390625 -8.15625 L 3.390625 -10.296875 L 1.75 -10.296875 L 1.75 0 L 3.390625 0 L 3.390625 -5.140625 C 3.390625 -5.984375 3.578125 -6.734375 3.96875 -7.421875 C 4.15625 -7.765625 4.421875 -8.0625 4.71875 -8.296875 C 5.03125 -8.53125 5.40625 -8.671875 5.828125 -8.671875 C 6.25 -8.671875 6.640625 -8.484375 7.046875 -8.15625 Z M 7.046875 -8.15625 "/></g></g></g><g fill="#000000" fill-opacity="1"><g transform="translate(212.674753, 29.071239)"><g><path d="M 4.984375 0.984375 L 9.703125 -10.296875 L 7.921875 -10.296875 L 4.984375 -2.640625 L 2.015625 -10.296875 L 0.234375 -10.296875 Z M 4.984375 0.984375 "/></g></g></g><g fill="#000000" fill-opacity="1"><g transform="translate(227.291572, 29.071239)"><g><path d="M 3.421875 -13.84375 C 3.203125 -14.03125 2.953125 -14.15625 2.671875 -14.15625 C 2.390625 -14.15625 2.125 -14.03125 1.9375 -13.84375 C 1.734375 -13.640625 1.640625 -13.375 1.640625 -13.09375 C 1.640625 -12.8125 1.734375 -12.5625 1.9375 -12.375 C 2.125 -12.15625 2.390625 -12.0625 2.671875 -12.0625 C 2.953125 -12.0625 3.203125 -12.15625 3.421875 -12.375 C 3.609375 -12.5625 3.71875 -12.8125 3.71875 -13.09375 C 3.71875 -13.375 3.609375 -13.640625 3.421875 -13.84375 Z M 3.515625 0 L 3.515625 -10.296875 L 1.875 -10.296875 L 1.875 0 Z M 3.515625 0 "/></g></g></g><g fill="#000000" fill-opacity="1"><g transform="translate(237.324795, 29.071239)"><g><path d="M 11.375 -6.59375 C 11.046875 -7.75 10.40625 -8.671875 9.5 -9.40625 C 8.53125 -10.125 7.484375 -10.5 6.3125 -10.5 C 4.84375 -10.5 3.578125 -9.96875 2.578125 -8.90625 C 1.546875 -7.859375 1.046875 -6.59375 1.046875 -5.140625 C 1.046875 -3.671875 1.546875 -2.4375 2.578125 -1.359375 C 3.046875 -0.859375 3.578125 -0.46875 4.234375 -0.1875 C 4.859375 0.09375 5.515625 0.234375 6.171875 0.234375 C 6.828125 0.234375 7.421875 0.15625 7.921875 -0.015625 C 9.5625 -0.609375 10.6875 -1.703125 11.28125 -3.375 L 9.421875 -3.375 C 9.09375 -2.78125 8.671875 -2.3125 8.109375 -1.984375 C 7.5625 -1.640625 6.96875 -1.46875 6.3125 -1.46875 C 5.3125 -1.46875 4.46875 -1.828125 3.765625 -2.546875 C 3.0625 -3.28125 2.734375 -4.140625 2.734375 -5.140625 C 2.734375 -6.109375 3.0625 -6.96875 3.765625 -7.703125 C 4.09375 -8.015625 4.46875 -8.296875 4.90625 -8.484375 C 5.328125 -8.671875 5.875 -8.796875 6.484375 -8.796875 C 7.09375 -8.796875 7.671875 -8.578125 8.28125 -8.1875 C 8.859375 -7.765625 9.3125 -7.25 9.59375 -6.59375 Z M 11.375 -6.59375 "/></g></g></g><g fill="#000000" fill-opacity="1"><g transform="translate(254.186633, 29.071239)"><g><path d="M 11.8125 -5.375 C 11.8125 -6.78125 11.25 -8 10.171875 -9.046875 C 9.125 -10.0625 7.859375 -10.578125 6.4375 -10.578125 C 4.9375 -10.578125 3.671875 -10.03125 2.625 -8.984375 C 1.5625 -7.921875 1.046875 -6.671875 1.046875 -5.1875 C 1.046875 -3.703125 1.5625 -2.4375 2.625 -1.40625 C 3.109375 -0.90625 3.671875 -0.53125 4.328125 -0.25 C 4.984375 0.015625 5.75 0.15625 6.671875 0.15625 C 7.578125 0.15625 8.46875 -0.109375 9.359375 -0.671875 C 10.25 -1.234375 10.90625 -2.03125 11.34375 -3.015625 L 9.46875 -3.015625 C 9.09375 -2.53125 8.65625 -2.15625 8.109375 -1.875 C 7.578125 -1.59375 7.015625 -1.46875 6.4375 -1.46875 C 5.546875 -1.46875 4.75 -1.75 4.046875 -2.34375 C 3.34375 -2.90625 2.90625 -3.625 2.765625 -4.515625 L 11.8125 -4.515625 Z M 10.078125 -5.921875 L 2.78125 -5.921875 C 2.875 -6.34375 3.046875 -6.734375 3.28125 -7.109375 C 4.015625 -8.328125 5.078125 -8.9375 6.4375 -8.9375 C 7.296875 -8.9375 8.0625 -8.65625 8.75 -8.09375 C 9.453125 -7.515625 9.875 -6.78125 10.078125 -5.921875 Z M 10.078125 -5.921875 "/></g></g></g><g fill="#000000" fill-opacity="1"><g transform="translate(271.609719, 29.071239)"><g/></g></g><g fill="#000000" fill-opacity="1"><g transform="translate(282.601773, 29.071239)"><g><path d="M 16.34375 -4.859375 L 14.546875 -4.859375 C 13.984375 -3.84375 13.21875 -3 12.234375 -2.390625 C 11.25 -1.75 10.15625 -1.453125 8.984375 -1.453125 C 7.234375 -1.453125 5.734375 -2.078125 4.484375 -3.390625 C 3.28125 -4.625 2.6875 -6.15625 2.6875 -7.921875 C 2.6875 -9.703125 3.28125 -11.234375 4.484375 -12.484375 C 5.046875 -13.078125 5.734375 -13.546875 6.5 -13.890625 C 7.25 -14.25 8 -14.4375 8.75 -14.4375 C 9.46875 -14.4375 10.109375 -14.34375 10.671875 -14.171875 C 12.375 -13.65625 13.65625 -12.625 14.53125 -11.0625 L 16.328125 -11.0625 C 15.71875 -12.5625 14.765625 -13.78125 13.421875 -14.71875 C 12.0625 -15.640625 10.59375 -16.109375 8.984375 -16.109375 C 6.765625 -16.109375 4.890625 -15.296875 3.34375 -13.6875 C 2.625 -12.9375 2.0625 -12.046875 1.65625 -11.0625 C 1.234375 -10.078125 1.046875 -9.03125 1.046875 -7.921875 C 1.046875 -5.6875 1.796875 -3.796875 3.34375 -2.203125 C 4.890625 -0.5625 6.765625 0.234375 8.984375 0.234375 C 10.59375 0.234375 12.0625 -0.234375 13.453125 -1.171875 C 14.78125 -2.109375 15.734375 -3.328125 16.34375 -4.859375 Z M 16.34375 -4.859375 "/></g></g></g><g fill="#000000" fill-opacity="1"><g transform="translate(304.327808, 29.071239)"><g><path d="M 11.8125 -5.375 C 11.8125 -6.78125 11.25 -8 10.171875 -9.046875 C 9.125 -10.0625 7.859375 -10.578125 6.4375 -10.578125 C 4.9375 -10.578125 3.671875 -10.03125 2.625 -8.984375 C 1.5625 -7.921875 1.046875 -6.671875 1.046875 -5.1875 C 1.046875 -3.703125 1.5625 -2.4375 2.625 -1.40625 C 3.109375 -0.90625 3.671875 -0.53125 4.328125 -0.25 C 4.984375 0.015625 5.75 0.15625 6.671875 0.15625 C 7.578125 0.15625 8.46875 -0.109375 9.359375 -0.671875 C 10.25 -1.234375 10.90625 -2.03125 11.34375 -3.015625 L 9.46875 -3.015625 C 9.09375 -2.53125 8.65625 -2.15625 8.109375 -1.875 C 7.578125 -1.59375 7.015625 -1.46875 6.4375 -1.46875 C 5.546875 -1.46875 4.75 -1.75 4.046875 -2.34375 C 3.34375 -2.90625 2.90625 -3.625 2.765625 -4.515625 L 11.8125 -4.515625 Z M 10.078125 -5.921875 L 2.78125 -5.921875 C 2.875 -6.34375 3.046875 -6.734375 3.28125 -7.109375 C 4.015625 -8.328125 5.078125 -8.9375 6.4375 -8.9375 C 7.296875 -8.9375 8.0625 -8.65625 8.75 -8.09375 C 9.453125 -7.515625 9.875 -6.78125 10.078125 -5.921875 Z M 10.078125 -5.921875 "/></g></g></g><g fill="#000000" fill-opacity="1"><g transform="translate(321.750894, 29.071239)"><g><path d="M 8.859375 0 L 10.5 0 L 10.5 -6.4375 C 10.5 -7.625 10.171875 -8.578125 9.5625 -9.3125 C 9.234375 -9.6875 8.859375 -9.96875 8.421875 -10.171875 C 7.953125 -10.390625 7.375 -10.5 6.640625 -10.5 C 5.890625 -10.5 5.265625 -10.296875 4.703125 -9.921875 C 4.15625 -9.5625 3.71875 -9.09375 3.390625 -8.515625 L 3.390625 -10.296875 L 1.75 -10.296875 L 1.75 0 L 3.390625 0 L 3.390625 -4.296875 C 3.390625 -5.609375 3.625 -6.640625 4.109375 -7.421875 C 4.390625 -7.828125 4.75 -8.1875 5.1875 -8.46875 C 5.609375 -8.71875 6.203125 -8.859375 6.90625 -8.859375 C 7.609375 -8.859375 8.09375 -8.609375 8.390625 -8.140625 C 8.703125 -7.671875 8.859375 -7.09375 8.859375 -6.4375 Z M 8.859375 0 "/></g></g></g><g fill="#000000" fill-opacity="1"><g transform="translate(338.332108, 29.071239)"><g><path d="M 0.46875 -8.765625 L 3.046875 -8.765625 L 3.046875 0 L 4.671875 0 L 4.671875 -8.765625 L 7.234375 -8.765625 L 7.234375 -10.296875 L 4.671875 -10.296875 L 4.671875 -14.296875 L 3.046875 -14.296875 L 3.046875 -10.296875 L 0.46875 -10.296875 Z M 0.46875 -8.765625 "/></g></g></g><g fill="#000000" fill-opacity="1"><g transform="translate(350.703907, 29.071239)"><g><path d="M 11.8125 -5.375 C 11.8125 -6.78125 11.25 -8 10.171875 -9.046875 C 9.125 -10.0625 7.859375 -10.578125 6.4375 -10.578125 C 4.9375 -10.578125 3.671875 -10.03125 2.625 -8.984375 C 1.5625 -7.921875 1.046875 -6.671875 1.046875 -5.1875 C 1.046875 -3.703125 1.5625 -2.4375 2.625 -1.40625 C 3.109375 -0.90625 3.671875 -0.53125 4.328125 -0.25 C 4.984375 0.015625 5.75 0.15625 6.671875 0.15625 C 7.578125 0.15625 8.46875 -0.109375 9.359375 -0.671875 C 10.25 -1.234375 10.90625 -2.03125 11.34375 -3.015625 L 9.46875 -3.015625 C 9.09375 -2.53125 8.65625 -2.15625 8.109375 -1.875 C 7.578125 -1.59375 7.015625 -1.46875 6.4375 -1.46875 C 5.546875 -1.46875 4.75 -1.75 4.046875 -2.34375 C 3.34375 -2.90625 2.90625 -3.625 2.765625 -4.515625 L 11.8125 -4.515625 Z M 10.078125 -5.921875 L 2.78125 -5.921875 C 2.875 -6.34375 3.046875 -6.734375 3.28125 -7.109375 C 4.015625 -8.328125 5.078125 -8.9375 6.4375 -8.9375 C 7.296875 -8.9375 8.0625 -8.65625 8.75 -8.09375 C 9.453125 -7.515625 9.875 -6.78125 10.078125 -5.921875 Z M 10.078125 -5.921875 "/></g></g></g><g fill="#000000" fill-opacity="1"><g transform="translate(368.126993, 29.071239)"><g><path d="M 7.046875 -8.15625 L 7.046875 -10.296875 C 6.71875 -10.4375 6.359375 -10.5 6.015625 -10.5 C 4.84375 -10.5 4 -9.84375 3.46875 -8.578125 L 3.390625 -8.15625 L 3.390625 -10.296875 L 1.75 -10.296875 L 1.75 0 L 3.390625 0 L 3.390625 -5.140625 C 3.390625 -5.984375 3.578125 -6.734375 3.96875 -7.421875 C 4.15625 -7.765625 4.421875 -8.0625 4.71875 -8.296875 C 5.03125 -8.53125 5.40625 -8.671875 5.828125 -8.671875 C 6.25 -8.671875 6.640625 -8.484375 7.046875 -8.15625 Z M 7.046875 -8.15625 "/></g></g></g><g fill="#000000" fill-opacity="1"><g transform="translate(9.443313, 29.071239)"><g><path d="M 12.140625 -4.421875 C 12.140625 -5.546875 11.859375 -6.5 11.328125 -7.25 C 10.765625 -8 10.015625 -8.515625 9.09375 -8.765625 C 9.640625 -9 10.109375 -9.421875 10.453125 -10.0625 C 10.625 -10.34375 10.734375 -10.625 10.828125 -10.921875 C 10.921875 -11.234375 10.96875 -11.65625 10.96875 -12.1875 C 10.96875 -12.703125 10.828125 -13.234375 10.59375 -13.75 C 9.890625 -15.1875 8.375 -15.90625 6.0625 -15.90625 L 1.75 -15.90625 L 1.75 0 L 6.625 0 C 8.234375 0 9.515625 -0.34375 10.5 -1.09375 C 11 -1.46875 11.390625 -1.96875 11.6875 -2.578125 C 11.96875 -3.15625 12.140625 -3.765625 12.140625 -4.421875 Z M 9.328125 -11.921875 C 9.328125 -11.0625 9.078125 -10.4375 8.5625 -10.015625 C 8.046875 -9.59375 7.375 -9.375 6.53125 -9.375 L 3.390625 -9.375 L 3.390625 -14.34375 L 6.0625 -14.34375 C 8.234375 -14.34375 9.328125 -13.515625 9.328125 -11.921875 Z M 10.5 -4.75 C 10.5 -3.796875 10.171875 -3.015625 9.515625 -2.4375 C 8.890625 -1.84375 8.0625 -1.5625 7.09375 -1.5625 L 3.390625 -1.5625 L 3.390625 -7.75 L 7.34375 -7.75 C 8.15625 -7.75 8.890625 -7.46875 9.515625 -6.90625 C 9.796875 -6.640625 10.03125 -6.34375 10.21875 -5.984375 C 10.40625 -5.609375 10.5 -5.21875 10.5 -4.75 Z M 10.5 -4.75 "/></g></g></g><g fill="#000000" fill-opacity="1"><g transform="translate(26.726092, 29.071239)"><g><path d="M 9.9375 -5.140625 C 9.9375 -4.140625 9.59375 -3.25 8.890625 -2.53125 C 8.1875 -1.78125 7.328125 -1.40625 6.3125 -1.40625 C 5.28125 -1.40625 4.421875 -1.78125 3.71875 -2.53125 C 3.015625 -3.25 2.6875 -4.140625 2.6875 -5.140625 C 2.6875 -6.125 3.015625 -7.015625 3.71875 -7.765625 C 4.421875 -8.515625 5.28125 -8.890625 6.3125 -8.890625 C 7.328125 -8.890625 8.1875 -8.515625 8.890625 -7.765625 C 9.59375 -7.015625 9.9375 -6.125 9.9375 -5.140625 Z M 11.578125 0 L 11.578125 -10.296875 L 9.9375 -10.296875 L 9.9375 -8.515625 C 9.84375 -8.65625 9.734375 -8.765625 9.640625 -8.890625 C 8.65625 -9.96875 7.46875 -10.53125 6.0625 -10.53125 C 4.625 -10.53125 3.4375 -9.96875 2.453125 -8.890625 C 1.515625 -7.8125 1.046875 -6.578125 1.046875 -5.140625 C 1.046875 -3.703125 1.515625 -2.453125 2.453125 -1.40625 C 3.4375 -0.296875 4.625 0.234375 6.0625 0.234375 C 7.46875 0.234375 8.65625 -0.296875 9.640625 -1.40625 C 9.734375 -1.5 9.84375 -1.609375 9.9375 -1.75 L 9.9375 0 Z M 11.578125 0 "/></g></g></g><g fill="#000000" fill-opacity="1"><g transform="translate(44.733822, 29.071239)"><g><path d="M 8.859375 0 L 10.5 0 L 10.5 -6.4375 C 10.5 -7.625 10.171875 -8.578125 9.5625 -9.3125 C 9.234375 -9.6875 8.859375 -9.96875 8.421875 -10.171875 C 7.953125 -10.390625 7.375 -10.5 6.640625 -10.5 C 5.890625 -10.5 5.265625 -10.296875 4.703125 -9.921875 C 4.15625 -9.5625 3.71875 -9.09375 3.390625 -8.515625 L 3.390625 -10.296875 L 1.75 -10.296875 L 1.75 0 L 3.390625 0 L 3.390625 -4.296875 C 3.390625 -5.609375 3.625 -6.640625 4.109375 -7.421875 C 4.390625 -7.828125 4.75 -8.1875 5.1875 -8.46875 C 5.609375 -8.71875 6.203125 -8.859375 6.90625 -8.859375 C 7.609375 -8.859375 8.09375 -8.609375 8.390625 -8.140625 C 8.703125 -7.671875 8.859375 -7.09375 8.859375 -6.4375 Z M 8.859375 0 "/></g></g></g><g fill="#000000" fill-opacity="1"><g transform="translate(61.315026, 29.071239)"><g><path d="M 10.078125 -5.140625 C 10.078125 -4.140625 9.734375 -3.25 9.03125 -2.53125 C 8.328125 -1.78125 7.46875 -1.40625 6.453125 -1.40625 C 5.453125 -1.40625 4.578125 -1.78125 3.890625 -2.53125 C 3.1875 -3.25 2.828125 -4.109375 2.828125 -5.140625 C 2.828125 -6.15625 3.1875 -7.015625 3.890625 -7.765625 C 4.578125 -8.515625 5.453125 -8.890625 6.453125 -8.890625 C 7.46875 -8.890625 8.328125 -8.515625 9.03125 -7.765625 C 9.734375 -7.015625 10.078125 -6.125 10.078125 -5.140625 Z M 2.78125 1.40625 L 1.09375 1.40625 C 1.28125 2.5 1.78125 3.46875 2.625 4.28125 C 3.65625 5.328125 4.90625 5.84375 6.390625 5.84375 C 7.828125 5.84375 9.09375 5.328125 10.15625 4.28125 C 11.1875 3.25 11.71875 1.984375 11.71875 0.515625 L 11.71875 -10.296875 L 10.078125 -10.296875 L 10.078125 -8.5625 C 9.984375 -8.65625 9.890625 -8.765625 9.796875 -8.890625 C 8.765625 -9.96875 7.578125 -10.53125 6.21875 -10.53125 C 4.765625 -10.53125 3.578125 -9.96875 2.59375 -8.890625 C 1.65625 -7.8125 1.1875 -6.578125 1.1875 -5.140625 C 1.1875 -3.703125 1.65625 -2.453125 2.59375 -1.40625 C 3.578125 -0.296875 4.765625 0.234375 6.21875 0.234375 C 7.625 0.234375 8.8125 -0.296875 9.796875 -1.40625 C 9.890625 -1.5 9.984375 -1.609375 10.078125 -1.703125 L 10.078125 0.515625 C 10.078125 1.546875 9.703125 2.40625 8.984375 3.140625 C 8.25 3.859375 7.390625 4.203125 6.390625 4.203125 C 5.359375 4.203125 4.484375 3.859375 3.765625 3.140625 C 3.25 2.625 2.921875 2.0625 2.78125 1.40625 Z M 2.78125 1.40625 "/></g></g></g><g fill="#000000" fill-opacity="1"><g transform="translate(79.463069, 29.071239)"><g><path d="M 9.9375 -5.140625 C 9.9375 -4.140625 9.59375 -3.25 8.890625 -2.53125 C 8.1875 -1.78125 7.328125 -1.40625 6.3125 -1.40625 C 5.28125 -1.40625 4.421875 -1.78125 3.71875 -2.53125 C 3.015625 -3.25 2.6875 -4.140625 2.6875 -5.140625 C 2.6875 -6.125 3.015625 -7.015625 3.71875 -7.765625 C 4.421875 -8.515625 5.28125 -8.890625 6.3125 -8.890625 C 7.328125 -8.890625 8.1875 -8.515625 8.890625 -7.765625 C 9.59375 -7.015625 9.9375 -6.125 9.9375 -5.140625 Z M 11.578125 0 L 11.578125 -10.296875 L 9.9375 -10.296875 L 9.9375 -8.515625 C 9.84375 -8.65625 9.734375 -8.765625 9.640625 -8.890625 C 8.65625 -9.96875 7.46875 -10.53125 6.0625 -10.53125 C 4.625 -10.53125 3.4375 -9.96875 2.453125 -8.890625 C 1.515625 -7.8125 1.046875 -6.578125 1.046875 -5.140625 C 1.046875 -3.703125 1.515625 -2.453125 2.453125 -1.40625 C 3.4375 -0.296875 4.625 0.234375 6.0625 0.234375 C 7.46875 0.234375 8.65625 -0.296875 9.640625 -1.40625 C 9.734375 -1.5 9.84375 -1.609375 9.9375 -1.75 L 9.9375 0 Z M 11.578125 0 "/></g></g></g><g fill="#000000" fill-opacity="1"><g transform="translate(97.4708, 29.071239)"><g><path d="M 3.390625 0 L 3.390625 -17.546875 L 1.75 -17.546875 L 1.75 0 Z M 3.390625 0 "/></g></g></g><g fill="#000000" fill-opacity="1"><g transform="translate(107.293555, 29.071239)"><g><path d="M 10.171875 -5.1875 C 10.171875 -4.15625 9.796875 -3.296875 9.078125 -2.578125 C 8.328125 -1.828125 7.46875 -1.46875 6.4375 -1.46875 C 5.40625 -1.46875 4.515625 -1.828125 3.796875 -2.578125 C 3.046875 -3.296875 2.6875 -4.15625 2.6875 -5.1875 C 2.6875 -6.21875 3.046875 -7.09375 3.796875 -7.828125 C 4.515625 -8.5625 5.40625 -8.9375 6.4375 -8.9375 C 7.46875 -8.9375 8.328125 -8.5625 9.078125 -7.828125 C 9.796875 -7.09375 10.171875 -6.21875 10.171875 -5.1875 Z M 11.8125 -5.1875 C 11.8125 -6.671875 11.28125 -7.921875 10.21875 -8.984375 C 9.171875 -10.03125 7.90625 -10.578125 6.4375 -10.578125 C 4.9375 -10.578125 3.671875 -10.03125 2.625 -8.984375 C 1.5625 -7.921875 1.046875 -6.671875 1.046875 -5.1875 C 1.046875 -3.703125 1.5625 -2.4375 2.625 -1.40625 C 3.671875 -0.34375 4.953125 0.15625 6.4375 0.15625 C 7.875 0.15625 9.171875 -0.34375 10.21875 -1.40625 C 11.28125 -2.4375 11.8125 -3.703125 11.8125 -5.1875 Z M 11.8125 -5.1875 "/></g></g></g><g fill="#000000" fill-opacity="1"><g transform="translate(124.833564, 29.071239)"><g><path d="M 7.046875 -8.15625 L 7.046875 -10.296875 C 6.71875 -10.4375 6.359375 -10.5 6.015625 -10.5 C 4.84375 -10.5 4 -9.84375 3.46875 -8.578125 L 3.390625 -8.15625 L 3.390625 -10.296875 L 1.75 -10.296875 L 1.75 0 L 3.390625 0 L 3.390625 -5.140625 C 3.390625 -5.984375 3.578125 -6.734375 3.96875 -7.421875 C 4.15625 -7.765625 4.421875 -8.0625 4.71875 -8.296875 C 5.03125 -8.53125 5.40625 -8.671875 5.828125 -8.671875 C 6.25 -8.671875 6.640625 -8.484375 7.046875 -8.15625 Z M 7.046875 -8.15625 "/></g></g></g><g fill="#000000" fill-opacity="1"><g transform="translate(136.784416, 29.071239)"><g><path d="M 11.8125 -5.375 C 11.8125 -6.78125 11.25 -8 10.171875 -9.046875 C 9.125 -10.0625 7.859375 -10.578125 6.4375 -10.578125 C 4.9375 -10.578125 3.671875 -10.03125 2.625 -8.984375 C 1.5625 -7.921875 1.046875 -6.671875 1.046875 -5.1875 C 1.046875 -3.703125 1.5625 -2.4375 2.625 -1.40625 C 3.109375 -0.90625 3.671875 -0.53125 4.328125 -0.25 C 4.984375 0.015625 5.75 0.15625 6.671875 0.15625 C 7.578125 0.15625 8.46875 -0.109375 9.359375 -0.671875 C 10.25 -1.234375 10.90625 -2.03125 11.34375 -3.015625 L 9.46875 -3.015625 C 9.09375 -2.53125 8.65625 -2.15625 8.109375 -1.875 C 7.578125 -1.59375 7.015625 -1.46875 6.4375 -1.46875 C 5.546875 -1.46875 4.75 -1.75 4.046875 -2.34375 C 3.34375 -2.90625 2.90625 -3.625 2.765625 -4.515625 L 11.8125 -4.515625 Z M 10.078125 -5.921875 L 2.78125 -5.921875 C 2.875 -6.34375 3.046875 -6.734375 3.28125 -7.109375 C 4.015625 -8.328125 5.078125 -8.9375 6.4375 -8.9375 C 7.296875 -8.9375 8.0625 -8.65625 8.75 -8.09375 C 9.453125 -7.515625 9.875 -6.78125 10.078125 -5.921875 Z M 10.078125 -5.921875 "/></g></g></g><g fill="#000000" fill-opacity="1"><g transform="translate(154.207502, 29.071239)"><g/></g></g><g fill="#000000" fill-opacity="1"><g transform="translate(165.199545, 29.071239)"><g><path d="M 6.15625 -7.484375 C 8.203125 -7 9.609375 -6.453125 10.359375 -5.84375 C 10.875 -5.421875 11.140625 -4.890625 11.140625 -4.234375 C 11.140625 -3.578125 11 -3.046875 10.71875 -2.671875 C 10.015625 -1.6875 8.75 -1.1875 6.96875 -1.1875 C 4.484375 -1.1875 3.09375 -2.03125 2.78125 -3.71875 L 0.859375 -3.71875 C 1.421875 -1.03125 3.46875 0.296875 6.96875 0.296875 C 8.53125 0.296875 9.84375 -0.015625 10.90625 -0.71875 C 12.15625 -1.546875 12.8125 -2.765625 12.8125 -4.34375 C 12.8125 -5.65625 12.296875 -6.671875 11.28125 -7.375 C 10.546875 -7.875 9.375 -8.34375 7.765625 -8.765625 C 6.125 -9.1875 5.078125 -9.546875 4.578125 -9.796875 C 3.515625 -10.34375 2.96875 -11.09375 3 -12.0625 C 3 -12.578125 3.09375 -13.03125 3.328125 -13.359375 C 3.921875 -14.265625 5 -14.734375 6.546875 -14.734375 C 8.71875 -14.734375 9.96875 -14.03125 10.296875 -12.671875 L 12.0625 -12.671875 C 11.484375 -14.96875 9.640625 -16.140625 6.546875 -16.140625 C 5.140625 -16.140625 3.90625 -15.765625 2.875 -15.015625 C 1.828125 -14.265625 1.28125 -13.171875 1.28125 -11.671875 C 1.28125 -9.640625 2.921875 -8.234375 6.15625 -7.484375 Z M 6.15625 -7.484375 "/></g></g></g><g fill="#000000" fill-opacity="1"><g transform="translate(183.300816, 29.071239)"><g><path d="M 11.8125 -5.375 C 11.8125 -6.78125 11.25 -8 10.171875 -9.046875 C 9.125 -10.0625 7.859375 -10.578125 6.4375 -10.578125 C 4.9375 -10.578125 3.671875 -10.03125 2.625 -8.984375 C 1.5625 -7.921875 1.046875 -6.671875 1.046875 -5.1875 C 1.046875 -3.703125 1.5625 -2.4375 2.625 -1.40625 C 3.109375 -0.90625 3.671875 -0.53125 4.328125 -0.25 C 4.984375 0.015625 5.75 0.15625 6.671875 0.15625 C 7.578125 0.15625 8.46875 -0.109375 9.359375 -0.671875 C 10.25 -1.234375 10.90625 -2.03125 11.34375 -3.015625 L 9.46875 -3.015625 C 9.09375 -2.53125 8.65625 -2.15625 8.109375 -1.875 C 7.578125 -1.59375 7.015625 -1.46875 6.4375 -1.46875 C 5.546875 -1.46875 4.75 -1.75 4.046875 -2.34375 C 3.34375 -2.90625 2.90625 -3.625 2.765625 -4.515625 L 11.8125 -4.515625 Z M 10.078125 -5.921875 L 2.78125 -5.921875 C 2.875 -6.34375 3.046875 -6.734375 3.28125 -7.109375 C 4.015625 -8.328125 5.078125 -8.9375 6.4375 -8.9375 C 7.296875 -8.9375 8.0625 -8.65625 8.75 -8.09375 C 9.453125 -7.515625 9.875 -6.78125 10.078125 -5.921875 Z M 10.078125 -5.921875 "/></g></g></g><g fill="#000000" fill-opacity="1"><g transform="translate(200.723902, 29.071239)"><g><path d="M 7.046875 -8.15625 L 7.046875 -10.296875 C 6.71875 -10.4375 6.359375 -10.5 6.015625 -10.5 C 4.84375 -10.5 4 -9.84375 3.46875 -8.578125 L 3.390625 -8.15625 L 3.390625 -10.296875 L 1.75 -10.296875 L 1.75 0 L 3.390625 0 L 3.390625 -5.140625 C 3.390625 -5.984375 3.578125 -6.734375 3.96875 -7.421875 C 4.15625 -7.765625 4.421875 -8.0625 4.71875 -8.296875 C 5.03125 -8.53125 5.40625 -8.671875 5.828125 -8.671875 C 6.25 -8.671875 6.640625 -8.484375 7.046875 -8.15625 Z M 7.046875 -8.15625 "/></g></g></g><g fill="#000000" fill-opacity="1"><g transform="translate(212.674753, 29.071239)"><g><path d="M 4.984375 0.984375 L 9.703125 -10.296875 L 7.921875 -10.296875 L 4.984375 -2.640625 L 2.015625 -10.296875 L 0.234375 -10.296875 Z M 4.984375 0.984375 "/></g></g></g><g fill="#000000" fill-opacity="1"><g transform="translate(227.291572, 29.071239)"><g><path d="M 3.421875 -13.84375 C 3.203125 -14.03125 2.953125 -14.15625 2.671875 -14.15625 C 2.390625 -14.15625 2.125 -14.03125 1.9375 -13.84375 C 1.734375 -13.640625 1.640625 -13.375 1.640625 -13.09375 C 1.640625 -12.8125 1.734375 -12.5625 1.9375 -12.375 C 2.125 -12.15625 2.390625 -12.0625 2.671875 -12.0625 C 2.953125 -12.0625 3.203125 -12.15625 3.421875 -12.375 C 3.609375 -12.5625 3.71875 -12.8125 3.71875 -13.09375 C 3.71875 -13.375 3.609375 -13.640625 3.421875 -13.84375 Z M 3.515625 0 L 3.515625 -10.296875 L 1.875 -10.296875 L 1.875 0 Z M 3.515625 0 "/></g></g></g><g fill="#000000" fill-opacity="1"><g transform="translate(237.324795, 29.071239)"><g><path d="M 11.375 -6.59375 C 11.046875 -7.75 10.40625 -8.671875 9.5 -9.40625 C 8.53125 -10.125 7.484375 -10.5 6.3125 -10.5 C 4.84375 -10.5 3.578125 -9.96875 2.578125 -8.90625 C 1.546875 -7.859375 1.046875 -6.59375 1.046875 -5.140625 C 1.046875 -3.671875 1.546875 -2.4375 2.578125 -1.359375 C 3.046875 -0.859375 3.578125 -0.46875 4.234375 -0.1875 C 4.859375 0.09375 5.515625 0.234375 6.171875 0.234375 C 6.828125 0.234375 7.421875 0.15625 7.921875 -0.015625 C 9.5625 -0.609375 10.6875 -1.703125 11.28125 -3.375 L 9.421875 -3.375 C 9.09375 -2.78125 8.671875 -2.3125 8.109375 -1.984375 C 7.5625 -1.640625 6.96875 -1.46875 6.3125 -1.46875 C 5.3125 -1.46875 4.46875 -1.828125 3.765625 -2.546875 C 3.0625 -3.28125 2.734375 -4.140625 2.734375 -5.140625 C 2.734375 -6.109375 3.0625 -6.96875 3.765625 -7.703125 C 4.09375 -8.015625 4.46875 -8.296875 4.90625 -8.484375 C 5.328125 -8.671875 5.875 -8.796875 6.484375 -8.796875 C 7.09375 -8.796875 7.671875 -8.578125 8.28125 -8.1875 C 8.859375 -7.765625 9.3125 -7.25 9.59375 -6.59375 Z M 11.375 -6.59375 "/></g></g></g><g fill="#000000" fill-opacity="1"><g transform="translate(254.186633, 29.071239)"><g><path d="M 11.8125 -5.375 C 11.8125 -6.78125 11.25 -8 10.171875 -9.046875 C 9.125 -10.0625 7.859375 -10.578125 6.4375 -10.578125 C 4.9375 -10.578125 3.671875 -10.03125 2.625 -8.984375 C 1.5625 -7.921875 1.046875 -6.671875 1.046875 -5.1875 C 1.046875 -3.703125 1.5625 -2.4375 2.625 -1.40625 C 3.109375 -0.90625 3.671875 -0.53125 4.328125 -0.25 C 4.984375 0.015625 5.75 0.15625 6.671875 0.15625 C 7.578125 0.15625 8.46875 -0.109375 9.359375 -0.671875 C 10.25 -1.234375 10.90625 -2.03125 11.34375 -3.015625 L 9.46875 -3.015625 C 9.09375 -2.53125 8.65625 -2.15625 8.109375 -1.875 C 7.578125 -1.59375 7.015625 -1.46875 6.4375 -1.46875 C 5.546875 -1.46875 4.75 -1.75 4.046875 -2.34375 C 3.34375 -2.90625 2.90625 -3.625 2.765625 -4.515625 L 11.8125 -4.515625 Z M 10.078125 -5.921875 L 2.78125 -5.921875 C 2.875 -6.34375 3.046875 -6.734375 3.28125 -7.109375 C 4.015625 -8.328125 5.078125 -8.9375 6.4375 -8.9375 C 7.296875 -8.9375 8.0625 -8.65625 8.75 -8.09375 C 9.453125 -7.515625 9.875 -6.78125 10.078125 -5.921875 Z M 10.078125 -5.921875 "/></g></g></g><g fill="#000000" fill-opacity="1"><g transform="translate(271.609719, 29.071239)"><g/></g></g><g fill="#000000" fill-opacity="1"><g transform="translate(282.601773, 29.071239)"><g><path d="M 16.34375 -4.859375 L 14.546875 -4.859375 C 13.984375 -3.84375 13.21875 -3 12.234375 -2.390625 C 11.25 -1.75 10.15625 -1.453125 8.984375 -1.453125 C 7.234375 -1.453125 5.734375 -2.078125 4.484375 -3.390625 C 3.28125 -4.625 2.6875 -6.15625 2.6875 -7.921875 C 2.6875 -9.703125 3.28125 -11.234375 4.484375 -12.484375 C 5.046875 -13.078125 5.734375 -13.546875 6.5 -13.890625 C 7.25 -14.25 8 -14.4375 8.75 -14.4375 C 9.46875 -14.4375 10.109375 -14.34375 10.671875 -14.171875 C 12.375 -13.65625 13.65625 -12.625 14.53125 -11.0625 L 16.328125 -11.0625 C 15.71875 -12.5625 14.765625 -13.78125 13.421875 -14.71875 C 12.0625 -15.640625 10.59375 -16.109375 8.984375 -16.109375 C 6.765625 -16.109375 4.890625 -15.296875 3.34375 -13.6875 C 2.625 -12.9375 2.0625 -12.046875 1.65625 -11.0625 C 1.234375 -10.078125 1.046875 -9.03125 1.046875 -7.921875 C 1.046875 -5.6875 1.796875 -3.796875 3.34375 -2.203125 C 4.890625 -0.5625 6.765625 0.234375 8.984375 0.234375 C 10.59375 0.234375 12.0625 -0.234375 13.453125 -1.171875 C 14.78125 -2.109375 15.734375 -3.328125 16.34375 -4.859375 Z M 16.34375 -4.859375 "/></g></g></g><g fill="#000000" fill-opacity="1"><g transform="translate(304.327808, 29.071239)"><g><path d="M 11.8125 -5.375 C 11.8125 -6.78125 11.25 -8 10.171875 -9.046875 C 9.125 -10.0625 7.859375 -10.578125 6.4375 -10.578125 C 4.9375 -10.578125 3.671875 -10.03125 2.625 -8.984375 C 1.5625 -7.921875 1.046875 -6.671875 1.046875 -5.1875 C 1.046875 -3.703125 1.5625 -2.4375 2.625 -1.40625 C 3.109375 -0.90625 3.671875 -0.53125 4.328125 -0.25 C 4.984375 0.015625 5.75 0.15625 6.671875 0.15625 C 7.578125 0.15625 8.46875 -0.109375 9.359375 -0.671875 C 10.25 -1.234375 10.90625 -2.03125 11.34375 -3.015625 L 9.46875 -3.015625 C 9.09375 -2.53125 8.65625 -2.15625 8.109375 -1.875 C 7.578125 -1.59375 7.015625 -1.46875 6.4375 -1.46875 C 5.546875 -1.46875 4.75 -1.75 4.046875 -2.34375 C 3.34375 -2.90625 2.90625 -3.625 2.765625 -4.515625 L 11.8125 -4.515625 Z M 10.078125 -5.921875 L 2.78125 -5.921875 C 2.875 -6.34375 3.046875 -6.734375 3.28125 -7.109375 C 4.015625 -8.328125 5.078125 -8.9375 6.4375 -8.9375 C 7.296875 -8.9375 8.0625 -8.65625 8.75 -8.09375 C 9.453125 -7.515625 9.875 -6.78125 10.078125 -5.921875 Z M 10.078125 -5.921875 "/></g></g></g><g fill="#000000" fill-opacity="1"><g transform="translate(321.750894, 29.071239)"><g><path d="M 8.859375 0 L 10.5 0 L 10.5 -6.4375 C 10.5 -7.625 10.171875 -8.578125 9.5625 -9.3125 C 9.234375 -9.6875 8.859375 -9.96875 8.421875 -10.171875 C 7.953125 -10.390625 7.375 -10.5 6.640625 -10.5 C 5.890625 -10.5 5.265625 -10.296875 4.703125 -9.921875 C 4.15625 -9.5625 3.71875 -9.09375 3.390625 -8.515625 L 3.390625 -10.296875 L 1.75 -10.296875 L 1.75 0 L 3.390625 0 L 3.390625 -4.296875 C 3.390625 -5.609375 3.625 -6.640625 4.109375 -7.421875 C 4.390625 -7.828125 4.75 -8.1875 5.1875 -8.46875 C 5.609375 -8.71875 6.203125 -8.859375 6.90625 -8.859375 C 7.609375 -8.859375 8.09375 -8.609375 8.390625 -8.140625 C 8.703125 -7.671875 8.859375 -7.09375 8.859375 -6.4375 Z M 8.859375 0 "/></g></g></g><g fill="#000000" fill-opacity="1"><g transform="translate(338.332108, 29.071239)"><g><path d="M 0.46875 -8.765625 L 3.046875 -8.765625 L 3.046875 0 L 4.671875 0 L 4.671875 -8.765625 L 7.234375 -8.765625 L 7.234375 -10.296875 L 4.671875 -10.296875 L 4.671875 -14.296875 L 3.046875 -14.296875 L 3.046875 -10.296875 L 0.46875 -10.296875 Z M 0.46875 -8.765625 "/></g></g></g><g fill="#000000" fill-opacity="1"><g transform="translate(350.703907, 29.071239)"><g><path d="M 11.8125 -5.375 C 11.8125 -6.78125 11.25 -8 10.171875 -9.046875 C 9.125 -10.0625 7.859375 -10.578125 6.4375 -10.578125 C 4.9375 -10.578125 3.671875 -10.03125 2.625 -8.984375 C 1.5625 -7.921875 1.046875 -6.671875 1.046875 -5.1875 C 1.046875 -3.703125 1.5625 -2.4375 2.625 -1.40625 C 3.109375 -0.90625 3.671875 -0.53125 4.328125 -0.25 C 4.984375 0.015625 5.75 0.15625 6.671875 0.15625 C 7.578125 0.15625 8.46875 -0.109375 9.359375 -0.671875 C 10.25 -1.234375 10.90625 -2.03125 11.34375 -3.015625 L 9.46875 -3.015625 C 9.09375 -2.53125 8.65625 -2.15625 8.109375 -1.875 C 7.578125 -1.59375 7.015625 -1.46875 6.4375 -1.46875 C 5.546875 -1.46875 4.75 -1.75 4.046875 -2.34375 C 3.34375 -2.90625 2.90625 -3.625 2.765625 -4.515625 L 11.8125 -4.515625 Z M 10.078125 -5.921875 L 2.78125 -5.921875 C 2.875 -6.34375 3.046875 -6.734375 3.28125 -7.109375 C 4.015625 -8.328125 5.078125 -8.9375 6.4375 -8.9375 C 7.296875 -8.9375 8.0625 -8.65625 8.75 -8.09375 C 9.453125 -7.515625 9.875 -6.78125 10.078125 -5.921875 Z M 10.078125 -5.921875 "/></g></g></g><g fill="#000000" fill-opacity="1"><g transform="translate(368.126993, 29.071239)"><g><path d="M 7.046875 -8.15625 L 7.046875 -10.296875 C 6.71875 -10.4375 6.359375 -10.5 6.015625 -10.5 C 4.84375 -10.5 4 -9.84375 3.46875 -8.578125 L 3.390625 -8.15625 L 3.390625 -10.296875 L 1.75 -10.296875 L 1.75 0 L 3.390625 0 L 3.390625 -5.140625 C 3.390625 -5.984375 3.578125 -6.734375 3.96875 -7.421875 C 4.15625 -7.765625 4.421875 -8.0625 4.71875 -8.296875 C 5.03125 -8.53125 5.40625 -8.671875 5.828125 -8.671875 C 6.25 -8.671875 6.640625 -8.484375 7.046875 -8.15625 Z M 7.046875 -8.15625 "/></g></g></g></svg>