<svg xmlns="http://www.w3.org/2000/svg" xmlns:xlink="http://www.w3.org/1999/xlink" width="622" zoomAndPan="magnify" viewBox="0 0 466.5 268.499992" height="358" preserveAspectRatio="xMidYMid meet" version="1.0"><defs><g/></defs><g fill="#000000" fill-opacity="1"><g transform="translate(45.771773, 184.75204)"><g><path d="M 57.234375 -29.359375 C 57.234375 -22.71875 51.625 -17.265625 45 -17.265625 L 30.984375 -17.265625 L 30.984375 -41.453125 L 45 -41.453125 C 51.625 -41.453125 57.234375 -35.84375 57.234375 -29.359375 Z M 50.296875 -71.25 C 50.296875 -64.90625 45 -59.59375 38.65625 -59.59375 L 30.984375 -59.59375 L 30.984375 -82.90625 L 38.65625 -82.90625 C 45 -82.90625 50.296875 -77.734375 50.296875 -71.25 Z M 79.8125 -28.765625 C 79.8125 -42.34375 70.65625 -51.328125 59.453125 -53.984375 C 66.96875 -57.390625 71.390625 -65.046875 71.390625 -75.234375 C 71.390625 -88.953125 60.484375 -100.3125 43.375 -100.3125 L 8.84375 -100.3125 L 8.84375 0 L 49.421875 0 C 68.59375 0 79.8125 -11.5 79.8125 -28.765625 Z M 79.8125 -28.765625 "/></g></g></g><g fill="#000000" fill-opacity="1"><g transform="translate(156.55087, 184.75204)"><g><path d="M 47.796875 -15.640625 C 36.875 -15.640625 27.4375 -21.09375 26.84375 -33.046875 L 4.421875 -33.046875 C 4.578125 -8.5625 24.78125 2.359375 46.90625 2.359375 C 67.421875 2.359375 88.515625 -6.34375 88.515625 -29.953125 C 88.515625 -68.15625 30.53125 -55.3125 30.53125 -73.171875 C 30.53125 -80.6875 39.234375 -83.640625 45.4375 -83.640625 C 56.5 -83.640625 62.546875 -80.25 63.734375 -69.78125 L 85.109375 -69.78125 C 84.375 -92.640625 65.796875 -101.78125 45.140625 -101.78125 C 26.84375 -101.78125 7.671875 -92.046875 7.671875 -71.390625 C 7.671875 -34.375 65.640625 -46.90625 65.640625 -27.4375 C 65.640625 -18.4375 54.734375 -15.640625 47.796875 -15.640625 Z M 47.796875 -15.640625 "/></g></g></g><g fill="#000000" fill-opacity="1"><g transform="translate(278.982485, 184.75204)"><g><path d="M 81.28125 -34.078125 C 77.15625 -25.21875 67.125 -19.171875 56.796875 -19.171875 C 40.5625 -19.171875 27.578125 -33.046875 27.578125 -50.15625 C 27.578125 -67.125 40.5625 -81.140625 56.796875 -81.140625 C 66.96875 -81.140625 77 -75.53125 81.140625 -66.53125 L 105.765625 -66.53125 C 98.984375 -87.03125 79.65625 -101.78125 56.796875 -101.78125 C 28.328125 -101.78125 5.15625 -78.625 5.15625 -50.15625 C 5.15625 -21.6875 28.328125 1.46875 56.796875 1.46875 C 79.65625 1.46875 99.125 -13.421875 105.921875 -34.078125 Z M 81.28125 -34.078125 "/></g></g></g><g fill="#000000" fill-opacity="1"><g transform="translate(45.771773, 184.75204)"><g><path d="M 57.234375 -29.359375 C 57.234375 -22.71875 51.625 -17.265625 45 -17.265625 L 30.984375 -17.265625 L 30.984375 -41.453125 L 45 -41.453125 C 51.625 -41.453125 57.234375 -35.84375 57.234375 -29.359375 Z M 50.296875 -71.25 C 50.296875 -64.90625 45 -59.59375 38.65625 -59.59375 L 30.984375 -59.59375 L 30.984375 -82.90625 L 38.65625 -82.90625 C 45 -82.90625 50.296875 -77.734375 50.296875 -71.25 Z M 79.8125 -28.765625 C 79.8125 -42.34375 70.65625 -51.328125 59.453125 -53.984375 C 66.96875 -57.390625 71.390625 -65.046875 71.390625 -75.234375 C 71.390625 -88.953125 60.484375 -100.3125 43.375 -100.3125 L 8.84375 -100.3125 L 8.84375 0 L 49.421875 0 C 68.59375 0 79.8125 -11.5 79.8125 -28.765625 Z M 79.8125 -28.765625 "/></g></g></g><g fill="#000000" fill-opacity="1"><g transform="translate(156.55087, 184.75204)"><g><path d="M 47.796875 -15.640625 C 36.875 -15.640625 27.4375 -21.09375 26.84375 -33.046875 L 4.421875 -33.046875 C 4.578125 -8.5625 24.78125 2.359375 46.90625 2.359375 C 67.421875 2.359375 88.515625 -6.34375 88.515625 -29.953125 C 88.515625 -68.15625 30.53125 -55.3125 30.53125 -73.171875 C 30.53125 -80.6875 39.234375 -83.640625 45.4375 -83.640625 C 56.5 -83.640625 62.546875 -80.25 63.734375 -69.78125 L 85.109375 -69.78125 C 84.375 -92.640625 65.796875 -101.78125 45.140625 -101.78125 C 26.84375 -101.78125 7.671875 -92.046875 7.671875 -71.390625 C 7.671875 -34.375 65.640625 -46.90625 65.640625 -27.4375 C 65.640625 -18.4375 54.734375 -15.640625 47.796875 -15.640625 Z M 47.796875 -15.640625 "/></g></g></g><g fill="#000000" fill-opacity="1"><g transform="translate(278.982485, 184.75204)"><g><path d="M 81.28125 -34.078125 C 77.15625 -25.21875 67.125 -19.171875 56.796875 -19.171875 C 40.5625 -19.171875 27.578125 -33.046875 27.578125 -50.15625 C 27.578125 -67.125 40.5625 -81.140625 56.796875 -81.140625 C 66.96875 -81.140625 77 -75.53125 81.140625 -66.53125 L 105.765625 -66.53125 C 98.984375 -87.03125 79.65625 -101.78125 56.796875 -101.78125 C 28.328125 -101.78125 5.15625 -78.625 5.15625 -50.15625 C 5.15625 -21.6875 28.328125 1.46875 56.796875 1.46875 C 79.65625 1.46875 99.125 -13.421875 105.921875 -34.078125 Z M 81.28125 -34.078125 "/></g></g></g></svg>